<?xml version="1.0" encoding="UTF-8"?><svg id="a" xmlns="http://www.w3.org/2000/svg" viewBox="0 0 350 200"><defs><style>.b{fill:#d70029;}</style></defs><path class="b" d="M64.84,75.95l-10.88,14.79h59.16c3.06,0,2.89,1.19,1.53,3.06-1.53,2.04-3.91,5.44-5.44,7.48-.85,1.02-2.21,2.89,2.38,2.89h24.14s3.91-5.27,7.14-9.69c4.42-6.12,.34-18.53-15.47-18.53h-62.56Z"/><path class="b" d="M49.54,123.88l21.76-29.58h27.03c3.06,0,2.89,1.19,1.53,3.06-1.53,2.04-4.08,5.44-5.61,7.48-.85,1.02-2.21,2.89,2.38,2.89h36.21c-3.06,4.08-12.75,16.15-30.43,16.15-13.94,0-52.87,0-52.87,0h0Z"/><path class="b" d="M174.49,107.91l-11.9,16.15h-31.11l11.9-16.15h31.11Z"/><polygon class="b" points="222.26 104.17 145.93 104.17 166.84 75.95 198.12 75.95 186.05 92.1 199.99 92.1 211.89 75.95 243.17 75.95 222.26 104.17"/><path class="b" d="M219.54,107.91l-11.9,16.15h-31.28l11.9-16.15h31.28Z"/><polygon class="b" points="5 114.2 50.9 114.2 48.52 117.6 5 117.6 5 114.2"/><polygon class="b" points="5 107.91 55.66 107.91 53.11 111.31 5 111.31 5 107.91"/><polygon class="b" points="5 120.48 46.31 120.48 43.76 123.88 5 123.88 5 120.48"/><polygon class="b" points="345 117.6 299.27 117.6 301.65 114.2 345 114.2 345 117.6"/><polygon class="b" points="345 123.88 294.51 123.88 297.06 120.48 345 120.48 345 123.88"/><polygon class="b" points="306.41 107.91 345 107.91 345 111.31 303.86 111.31 306.41 107.91"/><path class="b" d="M286.35,75.95l-20.91,28.39h-32.98l20.91-28.39h32.98Z"/><path class="b" d="M229.74,107.91s-2.21,3.06-3.4,4.59c-3.91,5.27-.51,11.39,12.41,11.39h50.15l11.9-16.15h-71.06v.17Z"/></svg>