<?xml version="1.0" encoding="UTF-8"?><svg id="a" xmlns="http://www.w3.org/2000/svg" viewBox="0 0 350 200"><defs><style>.b{fill:#5c3723;}</style></defs><path class="b" d="M294.96,70.85c-3.48,0-5.33,1.99-5.33,3.43v50.84c0,1.46,1.85,3.48,5.33,3.48s5.35-2.02,5.35-3.48v-50.84c0-1.39-1.71-3.43-5.35-3.43Z"/><path class="b" d="M340.47,116.75c-3.86,3.62-9.48,4.19-13.22,3.97-5.76-.32-10.7-4.09-10.55-9.29,3.25,2.22,7.54,3.04,10.69,3.04,9.62,0,17.61-4.75,17.61-13.11,0-6.11-5.61-13.1-17.61-13.1-15.01,0-21.73,10.84-21.73,20.44s6.55,20.44,21.79,20.44c8.17,0,14.06-3.38,14.89-7.97,.37-1.99-.86-3.84-1.87-4.43Zm-13.08-19.4c3.68,0,6.93,1.3,6.93,4.26,0,2.7-3.06,4.72-6.97,4.72-4.12,0-8.05-2.28-9.24-3.46,1.84-3.91,5.69-5.52,9.28-5.52Z"/><path class="b" d="M27.42,88.26c-4.89,0-7.86,.94-11.73,4.01v-.54c0-1.46-1.85-3.47-5.33-3.47s-5.35,2.01-5.35,3.47v33.44c0,1.44,1.86,3.44,5.35,3.44s5.33-2.01,5.33-3.44v-14.21c0-9.09,3.51-13.61,9.89-13.61,4.39,0,5.83,3.69,5.83,7.36v20.46c0,1.38,1.69,3.44,5.31,3.44s5.37-2.07,5.37-3.44v-20.29c0-11.64-6.01-16.62-14.68-16.62Z"/><path class="b" d="M110.27,88.26h-7.44v-7.68c0-1.44-1.85-3.45-5.31-3.45s-5.38,2.01-5.38,3.45v28.77c0,4.81,0,16.08,11.61,18.99,1.07,.18,1.96,.26,2.74,.26,2.42,0,3.8-.79,4.89-2.83,1.14-2.05,.76-4.05,.55-4.79-.5,.04-.99,.06-1.43,.06-3.52,0-5.67-1.11-6.74-3.49-.93-2.12-.93-4.97-.93-8.27v-12.7h6.44c3.52,0,5.88-2.99,5.88-5.79,0-1.64-.79-2.52-4.89-2.52Z"/><path class="b" d="M234.22,88.26c-5.79,0-15.59,3.8-15.59,18.88v17.97c0,1.46,1.85,3.49,5.35,3.49s5.34-2.03,5.34-3.49v-16.09c0-9.4,2.04-13.35,11.82-13.35,.2-.69,.59-2.61-.56-4.68-1.38-2.52-3.8-2.73-6.36-2.73Z"/><path class="b" d="M86.79,101.37c0-6.11-5.62-13.1-17.61-13.1-15.01,0-21.73,10.84-21.73,20.44s6.55,20.44,21.79,20.44c8.16,0,14.04-3.38,14.89-7.97,.37-1.99-.87-3.84-1.88-4.43-3.84,3.62-9.47,4.19-13.22,3.97-5.75-.32-10.7-4.09-10.53-9.29,3.24,2.22,7.53,3.04,10.68,3.04,9.62,0,17.61-4.75,17.61-13.11Zm-26.89,1.51c1.84-3.91,5.69-5.52,9.28-5.52s6.93,1.3,6.93,4.26c0,2.7-3.06,4.72-6.97,4.72-4.11,0-8.04-2.28-9.24-3.46Z"/><path class="b" d="M152.12,88.26c-4.01,.02-7.19,1.15-9.55,3.08-2.36-1.93-5.55-3.06-9.56-3.08-9.71,.02-14.61,6.58-14.61,15.37v21.72c0,1.36,1.76,3.27,5.09,3.27s5.06-1.91,5.06-3.27v-21.87c0-3.65,1.56-6.12,4.47-6.12s4.49,2.47,4.49,6.12v21.87c0,1.36,1.76,3.27,5.06,3.27h.03c3.3,0,5.06-1.91,5.06-3.27v-21.87c0-3.65,1.56-6.12,4.48-6.12s4.48,2.47,4.48,6.12v21.87c0,1.36,1.75,3.27,5.05,3.27s5.1-1.91,5.1-3.27v-21.72c0-8.79-4.92-15.34-14.62-15.37Z"/><path class="b" d="M210.69,112.53v-5.28c0-13.07-9.43-18.99-18.17-18.99-12.06,0-20.42,9.56-20.42,21.06,0,12.26,7.86,19.83,17.68,19.83,7.17,0,11.27-2.86,13.91-5.44,.74,1.29,1.39,2.2,2,2.98,1.02,1.22,2.15,1.8,3.46,1.8,.72,0,1.48-.18,2.29-.52,1.59-.69,2.61-1.7,2.94-2.96,.34-1.29-.08-2.53-.6-3.25-1.82-2.71-3.1-6.51-3.1-9.21Zm-10.71-4.23c-.35,6.57-4.01,12.25-10.29,11.66-4.87-.45-7.76-5.66-6.86-12.08,.9-6.44,4.93-10.95,10.08-10.53,5.04,.28,7.42,4.52,7.06,10.95Z"/><path class="b" d="M266.09,88.26c-3.68,0-6.94,.84-9.75,2.31v-16.29c0-1.39-1.7-3.42-5.35-3.42s-5.33,1.98-5.33,3.42v35.04c0,12.26,7.86,19.83,17.69,19.83,13.89,0,20.91-10.69,20.91-21.89,0-12.17-7.33-18.99-18.17-18.99Zm7.46,20.04c-.36,6.57-4.02,12.25-10.29,11.66-4.87-.45-7.76-5.66-6.86-12.08,.89-6.44,4.92-10.95,10.08-10.53,5.05,.28,7.42,4.52,7.07,10.95Z"/></svg>