<?xml version="1.0" encoding="UTF-8"?><svg id="a" xmlns="http://www.w3.org/2000/svg" viewBox="0 0 350 200"><path d="M136.76,20h106.72v.8c-.32,1.12-.48,2.24-.8,3.36-2.08,10.56-4,21.12-5.92,31.68-1.76,9.44-3.52,18.88-5.28,28.32-2.08,10.56-4,21.12-6.08,31.84-1.76,9.44-3.52,18.88-5.28,28.32-1.92,10.24-3.84,20.64-5.92,30.88l-.96,4.8H106.52c0-.32,0-.48,.16-.8,.64-3.52,1.28-6.88,1.92-10.4,2.24-11.36,4.32-22.88,6.56-34.24,2.24-12.32,4.64-24.48,6.88-36.8,2.4-12.48,4.8-25.12,7.2-37.6,2.08-11.2,4.32-22.4,6.4-33.6,.32-2.08,.64-4.32,1.12-6.56Zm15.04,114.56c-1.92,10.08-3.84,20-5.76,30.08h32.64c.48,0,.64-.16,.8-.64,.8-1.92,1.6-3.84,2.24-5.76,.16-.48,.48-.64,.96-.64h8.96v6.88h8c-.48-12.48-.96-24.96-1.6-37.44h-8.96c-.64,0-.96,.16-1.28,.8-4.32,9.44-8.8,18.88-13.28,28.32-.32,.64-.64,.8-1.28,.8h-17.44c.48-2.72,.96-5.28,1.44-8h8.64c.48-2.4,.96-4.64,1.44-7.2h-8.64c.48-2.56,.96-4.96,1.44-7.36h7.36c1.28,0,1.12,.32,1.44-1.12l.48-2.88c.16-1.12,.32-2.08,.64-3.36h-41.28c-.16,.16-.48,.32-.64,.48-.16,.64-.32,1.44-.48,2.08l-.96,4.8h7.84c-1.92,10.08-3.84,20-5.76,30.08h8.48c1.92-10.08,3.84-20,5.76-30.08,3.36,.16,5.92,.16,8.8,.16Zm18.56-52.96h-33.28c-.48,2.4-.96,4.8-1.44,7.36h8c-1.92,10.08-3.84,20.16-5.76,30.08h8.16c.16,0,.48-.32,.48-.48,.48-2.08,.8-4.32,1.28-6.4,1.44-7.52,2.88-15.04,4.32-22.56,.16-.48,.32-.64,.8-.64h7.84c-1.92,10.08-3.84,20.16-5.76,30.08h8.48c.96-5.28,1.92-10.4,3.04-15.52h8.8c-.96,5.28-1.92,10.4-3.04,15.52h8.8c2.4-12.48,4.8-24.96,7.2-37.44h-8.8q0,.16-.16,.32c-.8,4.48-1.76,8.8-2.56,13.28-.16,.48-.32,.64-.8,.64h-8.16c.8-4.96,1.6-9.6,2.56-14.24Zm55.36-45.92h-37.28c-.48,0-.64,.16-.8,.64-1.92,10.56-4,20.96-6.08,31.52-.32,1.76-.64,3.52-.96,5.28,.16,0,.16,.16,.32,.16h8.16c.64,0,.64-.32,.64-.64,1.44-7.84,3.04-15.84,4.48-23.68,.32-1.92,.8-3.84,1.12-5.76h11.84c-1.92,10.08-3.84,20-5.76,30.08h7.68c.64,0,.8-.16,.96-.8,1.6-8.16,3.04-16.32,4.64-24.48,.32-1.6,.64-3.36,.96-4.96h7.84c.32,0,.64,0,.8-.48,.48-2.24,.96-4.48,1.44-6.88Zm-66.4,14.24c.96-4.8,1.76-9.44,2.72-14.08h-8.48l-7.2,37.44h8.48c0-.32,.16-.64,.16-.96,.96-4.64,1.76-9.28,2.56-13.76,.16-.64,.32-.96,1.12-.96h7.52c-.96,5.28-1.92,10.4-3.04,15.68h8.16c.16,0,.48-.32,.48-.48,.16-.96,.48-2.08,.64-3.2,1.92-9.6,3.68-19.2,5.6-28.8,.32-1.6,.64-3.36,.96-4.96-.16,0-.16-.16-.32-.16h-7.84c-.48,0-.48,.32-.64,.64-.48,2.24-.8,4.64-1.28,6.88-.48,2.24-.8,4.48-1.28,6.72h-8.32Zm49.28,46.24h-8.64c.48-2.4,.96-4.8,1.44-7.2h8.64c.48-2.56,.96-4.96,1.44-7.36h-17.28c-2.4,12.48-4.8,24.96-7.2,37.44,.16,0,.16,.16,.16,.16h16.64c.16,0,.48-.32,.48-.48,.32-1.44,.64-2.88,.8-4.32,.16-.96,.32-1.76,.48-2.88h-8.64c.48-2.72,.96-5.28,1.44-7.84h8.64c.64-2.72,1.12-4.96,1.6-7.52Z"/><path d="M191.8,150.88h-6.88c2.08-4.96,4.16-9.92,6.4-14.72h.16c0,4.96,.16,9.76,.32,14.72Z"/></svg>