<?xml version="1.0" encoding="UTF-8"?><svg id="a" xmlns="http://www.w3.org/2000/svg" viewBox="0 0 350 200"><path d="M125.98,79.24v-7.67h-9.24v-8h9.24v-7.67h-9.24v-9.24h-7.67v9.24h-8v-9.24h-7.67v9.24h-9.24v7.67h9.24v8h-9.24v7.67h9.24v9.24h7.67v-9.24h8v9.24h7.67v-9.24h9.24Zm-24.91-7.67v-8h8v8h-8Z"/><path d="M67.48,75.02c-6.38-7.3-14.74-10.99-24.89-10.99-11.22,0-20.51,3.87-27.62,11.48-3.15,3.32-5.63,7.32-7.36,11.85-1.73,4.39-2.61,8.84-2.61,13.24,0,4.89,1.05,9.8,3.11,14.6,1.98,4.55,4.71,8.5,8.09,11.73,3.32,3.24,7.34,5.8,11.95,7.62,4.43,1.83,9.05,2.75,13.72,2.75,.2,0,.39,0,.59,0,10.11,0,18.51-3.65,25.01-10.86v9.3h11.39V65.71h-11.39v9.31Zm.12,25.76c0,7.03-2.5,13.16-7.42,18.23-4.99,5.13-11.01,7.74-17.88,7.74-3.17,0-6.43-.69-9.69-2.05-3.49-1.44-6.48-3.46-8.9-6.03-4.78-4.99-7.24-11.05-7.31-18,0-6.95,2.58-13.12,7.65-18.33,2.5-2.5,5.26-4.37,8.21-5.58,3.5-1.44,6.92-2.17,10.17-2.17,7.12,0,12.96,2.53,17.86,7.71,4.86,5.23,7.32,11.45,7.32,18.49Z"/><path d="M223.14,96.71c-.89-2.26-2.11-4.33-3.62-6.14-3.07-3.67-7.23-6.28-12.39-7.76-2.55-.7-5.13-1.05-7.69-1.05-4.71,0-9.23,1.43-13.49,4.28-.34,.24-.67,.49-.98,.75v-21.5h-10.49v71.44h10.49v-29.29c.07-5.19,.81-7.68,1.42-8.89,.69-1.41,1.82-2.73,3.37-3.93,2.92-2.27,6.08-3.37,9.68-3.37s7.02,1.15,9.91,3.51c1.44,1.2,2.59,2.66,3.42,4.34,1.13,2.24,1.7,5.03,1.7,8.31v29.32h10.49v-29.42c-.27-4.65-.87-8.12-1.83-10.59Z"/><path d="M268.34,84.1c-3.83-1.61-7.64-2.42-11.32-2.42-3.37,0-6.99,.75-10.74,2.23-2.97,1.14-5.8,3.01-8.42,5.57-5.72,5.54-8.63,12.2-8.63,19.85,.06,3.74,.88,7.4,2.43,10.87,1.49,3.43,3.58,6.43,6.22,8.94,2.43,2.24,5.23,4.04,8.31,5.33,3.42,1.5,6.96,2.26,10.49,2.26,.14,0,.28,0,.41,0,7.22,0,13.6-2.49,18.97-7.43,2.48-2.36,4.56-5.22,6.18-8.52,1.8-3.8,2.72-7.69,2.72-11.57,0-6.87-2.49-13.09-7.41-18.51-2.75-2.99-5.86-5.21-9.24-6.59Zm6.68,24.79c0,5.33-1.69,9.63-5.17,13.16-3.53,3.58-7.7,5.32-12.73,5.32s-8.95-1.69-12.49-5.16c-3.59-3.53-5.37-7.69-5.42-12.72-.05-5.25,1.69-9.58,5.34-13.22,1.68-1.68,3.56-2.92,5.61-3.71,2.58-1.02,4.95-1.54,7.05-1.54,4.97,0,9.16,1.82,12.82,5.58,3.36,3.41,5,7.43,5,12.28Z"/><path d="M336.61,89.31c-5.31-5.07-11.64-7.64-18.8-7.64-6,0-11.35,1.78-15.87,5.26-.41,.31-.82,.64-1.21,1v-5.05h-9.84v70.46h9.84v-23.78c4.33,4.14,9.91,6.23,16.64,6.23,7.25,.08,13.58-2.39,18.95-7.27,5.76-5.26,8.67-11.88,8.67-19.66s-2.82-14.29-8.39-19.54Zm-1.45,19.59c0,5.23-1.81,9.45-5.53,12.91-3.41,3.19-7.3,4.74-11.9,4.74s-8.63-1.55-12-4.75c-3.71-3.44-5.49-7.77-5.43-13.24,0-4.93,1.63-9,4.97-12.43,1.76-1.76,3.63-3.04,5.6-3.81,2.23-.93,4.53-1.4,6.86-1.4,4.61,0,8.44,1.49,11.72,4.55,3.84,3.68,5.71,8.07,5.71,13.43Z"/><path d="M161.82,108.09c-4.4-1.86-7.6-3.04-9.58-3.53-6.82-1.72-11.23-2.97-13.24-3.75-2.01-.78-3.02-2.18-3.02-4.19,0-2.21,.9-3.75,2.71-4.64,1.81-.88,3.65-1.32,5.53-1.32,2.85,0,5.31,.53,7.37,1.58,2.06,1.06,3.19,3.18,3.4,6.37h11.6c0-6.08-2.21-10.43-6.64-13.03-4.43-2.6-9.49-3.9-15.19-3.9-4.94,0-9.57,1.3-13.89,3.9-4.33,2.6-6.49,6.6-6.49,12,0,4.91,1.7,8.37,5.11,10.38,3.41,2.01,7.12,3.53,11.14,4.56,4.02,1.03,7.72,2.02,11.11,2.98,3.38,.96,5.08,2.86,5.08,5.7,0,2.7-1.25,4.47-3.74,5.3-2.49,.83-4.78,1.25-6.87,1.25-3.21,0-6.02-.75-8.43-2.24-2.42-1.5-3.63-3.99-3.63-7.47h-11.6c-.05,6.48,2.3,11.21,7.06,14.2,4.76,2.99,10.14,4.49,16.14,4.49,7.43,0,13.07-1.61,16.91-4.82,3.84-3.21,5.76-7.22,5.76-12.03,0-5.99-2.2-9.91-6.6-11.78Z"/></svg>