<?xml version="1.0" encoding="UTF-8"?><svg id="a" xmlns="http://www.w3.org/2000/svg" viewBox="0 0 350 200"><defs><style>.b{fill:#0c0c0e;}</style></defs><path class="b" d="M37.95,123.8l-13.99-16.34v16.34H5v-47.6H23.97v16.71l13.52-16.71h22.81l-18.97,23.85,20.19,23.75h-23.57Z"/><path class="b" d="M67.78,81.67c5.29-4.78,11.72-7.17,19.29-7.17s14.02,2.39,19.34,7.17c5.32,4.78,7.98,10.91,7.98,18.38s-2.66,13.58-7.98,18.33c-5.32,4.75-11.77,7.12-19.34,7.12s-14.01-2.37-19.29-7.12c-5.29-4.75-7.93-10.86-7.93-18.33s2.64-13.59,7.93-18.38Zm12.77,25.17c1.72,1.87,3.9,2.8,6.53,2.8s4.82-.93,6.57-2.8c1.75-1.87,2.63-4.13,2.63-6.79s-.88-5.02-2.63-6.89c-1.75-1.87-3.94-2.8-6.57-2.8s-4.8,.93-6.53,2.8c-1.72,1.87-2.58,4.16-2.58,6.89s.86,4.92,2.58,6.79Z"/><path class="b" d="M154.59,74.5c5.32,0,9.58,1.74,12.77,5.21,3.19,3.47,4.79,8.22,4.79,14.22v29.87h-18.87v-25.93c0-1.94-.55-3.54-1.64-4.79-1.1-1.25-2.52-1.88-4.27-1.88-2.13,0-3.8,.75-5.02,2.25-1.22,1.5-1.83,3.63-1.83,6.39v23.96h-18.97v-47.6h18.97v4.97c3.88-4.26,8.57-6.67,14.08-6.67Z"/><path class="b" d="M232.5,76.2l-21.88,47.6h-13.33l-21.78-47.6h19.62l8.82,21.68,8.83-21.68h19.72Z"/><path class="b" d="M256.09,123.8h-18.96v-47.6h18.96v47.6Z"/><path class="b" d="M298.81,74.5c5.32,0,9.58,1.74,12.77,5.21,3.19,3.47,4.79,8.22,4.79,14.22v29.87h-18.87v-25.93c0-1.94-.55-3.54-1.64-4.79-1.09-1.25-2.52-1.88-4.27-1.88-2.13,0-3.8,.75-5.02,2.25-1.22,1.5-1.83,3.63-1.83,6.39v23.96h-18.97v-47.6h18.97v4.97c3.88-4.26,8.57-6.67,14.08-6.67Z"/><path class="b" d="M345,123.8h-18.96v-47.6h18.96v47.6Z"/></svg>