<?xml version="1.0" encoding="UTF-8"?><svg id="a" xmlns="http://www.w3.org/2000/svg" viewBox="0 0 350 200"><defs><style>.b{fill:#f9a31a;}</style></defs><path class="b" d="M63.76,95.64c0,13.83-9.35,25.39-22.04,28.67l-7.37,9.69-7.37-9.69c-12.64-3.29-21.99-14.85-21.99-28.67,0-16.38,13.09-29.64,29.41-29.64s29.35,13.2,29.35,29.64Zm-43.07-7.99l12.58,6.12c1.3,.68,3.46,.68,4.82,0l12.58-6.12c1.3-.57,1.3-1.64,0-2.32l-12.58-6.12c-1.3-.68-3.46-.68-4.82,0l-12.58,6.12c-1.36,.57-1.36,1.59,0,2.32h0Zm15.7,11.9v12.07c0,1.53,1.08,2.21,2.38,1.53l13.09-6.12c1.3-.68,2.38-2.44,2.38-3.8v-12.18c0-1.53-1.08-2.21-2.38-1.53l-13.09,6.23c-1.3,.68-2.38,2.44-2.38,3.8h0Zm-17.85,7.31l12.98,6.35c1.3,.57,2.38-.11,2.38-1.53v-12.18c0-1.53-1.08-3.12-2.38-3.8l-12.98-6.23c-1.3-.57-2.38,.11-2.38,1.53v12.07c-.06,1.47,1.02,3.12,2.38,3.8h0Z"/><path d="M104.45,117.11h-.11c-2.49,3.29-7.03,5.38-12.01,5.38-12.01,0-18.98-9.75-18.98-19.15,0-8.9,7.48-19.04,19.38-19.04,5.44,0,9.63,2.32,11.62,5.38h.11v-4.42h7.82v36.15h-7.82v-4.31Zm-11.16-2.04c6.18,0,11.5-5.27,11.5-11.73s-5.33-11.73-11.5-11.73-11.62,5.27-11.62,11.73,5.16,11.73,11.62,11.73Zm27.77-22.55h-5.1v-7.25h5.1v-6.12c0-6.69,4.14-13.15,13.66-13.15,1.93,0,4.42,.34,6.06,.96l-3.23,7.03c-1.08-.51-2.27-.74-3.46-.68-3.23,0-5.1,2.61-5.1,5.27v6.57h7.82v7.25h-7.82v28.9h-7.82v-28.79h-.11Zm24.48,0h-4.53v-7.25h4.53v-10.82h7.82v10.82h5.55v7.31h-5.55v28.9h-7.82v-28.96h0Zm51.28,21.02c-4.42,5.5-10.43,8.78-17,8.78-12.81,0-20.17-9.52-20.17-19.15s7.37-19.04,20.17-19.04c7.59,0,18.98,6.23,18.98,20.34v1.42h-30.37c.45,5.5,5.72,9.52,11.16,9.52,4.25,0,7.82-1.98,10.54-5.61l6.69,3.74Zm-7.37-13.94c-1.64-5.5-5.84-8.44-10.82-8.44s-9.01,3.06-10.31,8.44h21.14Zm12.47-14.34h7.37v3.97h.11c1.3-2.95,4.02-4.93,7.25-4.93,1.76,0,3.23,.45,4.25,1.19l-2.83,7.76c-.74-.57-2.15-1.08-2.95-1.08-2.83,0-5.44,2.1-5.44,5.5v23.97h-7.82v-36.38h.06Zm23.4,25.39c2.83,2.95,7.37,5.27,11.5,5.27,4.53,0,7.25-2.61,7.25-4.59,0-2.32-1.93-3.63-4.76-4.25l-4.53-.85c-10.31-1.87-13.2-5.16-13.2-10.31,0-6.12,5.21-11.84,14.39-11.84,5.1,0,9.52,1.53,14.51,5.04l-4.53,5.5c-3.8-3.17-7.25-3.97-9.86-3.97-3.46,0-6.74,1.64-6.74,4.59,0,2.1,1.76,3.29,4.76,3.74l7.93,1.53c6.52,1.19,9.75,4.25,9.75,9.63s-4.42,12.24-15.58,12.24c-6.18,0-11.5-2.1-16.49-6.35l5.61-5.38h0Zm67.32-25.39h7.82v36.15h-7.82v-36.15h0Zm-38.14-10.82h7.82v15.36h.11c2.15-3.4,6.18-5.5,11.16-5.5,7.71,0,14.22,6.35,14.22,15.36v21.87h-7.82v-20.17c0-6.57-3.46-9.29-8.67-9.29s-9.01,3.17-9.01,9.18v20.29h-7.82v-47.09h0Zm59.39,15.19h.11c2.83-3.4,7.03-5.38,12.01-5.38,12.01,0,18.98,9.75,18.98,19.15s-7.48,19.04-19.38,19.04c-5.44,0-9.63-2.32-11.62-5.38h-.11v16.94h-7.82v-48.73h7.82v4.36h0Zm11.16,1.98c-6.18,0-11.5,5.27-11.5,11.73s5.33,11.73,11.5,11.73,11.62-5.27,11.62-11.73-5.21-11.73-11.62-11.73h0Zm-28.39-17.62c2.38,0,4.42,1.98,4.42,4.36s-2.04,4.36-4.42,4.36-4.42-1.98-4.42-4.36c.06-2.49,1.93-4.36,4.42-4.36Z"/></svg>