<?xml version="1.0" encoding="UTF-8"?><svg id="a" xmlns="http://www.w3.org/2000/svg" viewBox="0 0 350 200"><defs><style>.b{fill:#683a92;}.c{fill:#e73829;}.d{fill:#585756;}</style></defs><path class="b" d="M326.39,64.29c-11,0-18.88,6.15-19.34,14.47-2.36-.69-4.93-1.08-7.72-1.08-11.33,0-19.36,6.53-19.36,15.23,0,.56,.04,1.1,.1,1.61h-31.05l4.78-17.85h31.52l1.49-5.38h-37.42l-3.65,13.59c-.15-2.12-.78-4.13-1.86-5.97-2.53-4.93-8.37-7.62-17.28-7.62h-19.5l-1.64,5.95c2.22,2.6,3.33,5.91,3.33,10.11,0,8.19-4.3,14.16-10.94,17.45l-5.18,18.78h9.52l4.99-18.23h11.21l9.21,18.23h43.96c4.55,5.11,11.29,8.13,19.96,8.13,10.47,0,18.77-5.86,19.78-14.19,2.25,.52,4.67,.8,7.28,.8,11.18,0,19.89-6.68,19.89-15.91,0-6.75-4.58-10.43-13.58-13.88-3.17-1.24-5.62-2.32-7.43-3.43-1.49-.91-2.55-1.83-3.23-2.87-.65-.99-.96-2.09-.96-3.38,0-4.8,4.73-9.23,12.61-9.23,6.15,0,10.96,2.33,14.78,6.53l4.35-3.9c-3.98-4.65-10.43-7.96-18.61-7.96Zm-104.77,32.92h-12.21l4.91-17.55h11.75c5.45,0,8.68,1.64,9.67,4.41,.84,1.79,.84,3.51,.08,5.45-.92,5-6.6,7.69-14.21,7.69Zm14.78,22.47l-7.95-15.22c6.61-1.34,11.4-4.11,14.2-8.05l-6.25,23.27Zm68.79-3.13c0,5.7-5.7,9.83-13.28,9.83s-12.91-2.78-17.34-8.18h-31.9l4.93-18.3h34.83c2.32,2.72,6.28,4.8,11.95,7.04,1.08,.42,2.06,.83,2.96,1.23,5.05,2.26,7.25,4.27,7.74,7.06,.07,.42,.11,.86,.11,1.32Zm27.06-13.39c0,5.7-5.7,9.83-13.28,9.83-3.14,0-5.85-.47-8.26-1.37-1.61-4.24-5.92-7.04-12.87-9.71-8.25-3.23-11.63-5.4-11.63-9.68,0-4.8,4.73-9.23,12.61-9.23,3.81,0,7.1,.89,9.96,2.57,2.17,3.19,6.37,5.49,12.67,7.98,8.11,3.15,10.81,5.55,10.81,9.61Z"/><path class="b" d="M204.87,76.6c-3.7-3.81-8.71-5.3-15.96-5.3h-16.11l-13.64,52.29h11.17l4.13-15.84h9.65c5.12,0,9.83-1.01,13.73-2.94l7.61-27.56c-.19-.22-.38-.44-.58-.65Zm-20.17,21.06h-7.62l4.13-15.99h7.25c3.34,0,5.44,.75,6.97,2.32,1.09,1.12,1.67,2.61,1.67,4.33,0,5.9-5.01,9.34-12.41,9.34Z"/><path class="c" d="M208.79,87.36c0-4.2-1.11-7.51-3.33-10.11l-7.61,27.56c6.64-3.29,10.94-9.26,10.94-17.45Z"/><path class="b" d="M127.05,92.96l-12-27.95h17.63l6.37,16.48,14.32-16.48h19.37l-26.82,29.12,12.75,29.45h-17.72l-6.95-18.07-15.73,18.07h-19.46l28.23-30.62Z"/><g><path class="c" d="M55.05,126.36c-15.55,0-28.2-12.65-28.2-28.2s12.65-28.2,28.2-28.2,28.2,12.65,28.2,28.2c0,3.22-.55,6.31-1.55,9.2l16.38,16.38c4.46-7.49,7.02-16.23,7.02-25.58,0-27.64-22.41-50.05-50.05-50.05S5,70.52,5,98.16s22.41,50.05,50.05,50.05c10.38,0,20.03-3.16,28.02-8.57l-15.98-15.98c-3.65,1.73-7.73,2.71-12.04,2.71Z"/><path class="c" d="M104.08,129.74l-6-6c-3.78,6.34-8.91,11.77-15.01,15.9l5.55,5.55c2.13,2.13,4.93,3.2,7.73,3.2s5.59-1.07,7.73-3.2c4.27-4.27,4.27-11.19,0-15.45Z"/><path class="c" d="M61.25,102.36c-4.27,4.27-4.27,11.19,0,15.45l5.84,5.84c6.81-3.23,12.12-9.11,14.61-16.29l-5-5c-4.27-4.27-11.19-4.27-15.45,0Z"/><path class="b" d="M98.08,123.74l-16.38-16.38c-2.49,7.19-7.8,13.07-14.61,16.29l15.98,15.98c6.1-4.13,11.23-9.56,15.01-15.9Z"/></g><g><path class="d" d="M116.08,141.71v-.48c0-4.93,2.1-7.44,4.91-7.44,.8,0,1.43,.17,1.97,.43v2.25c-.65-.39-1.23-.65-1.9-.65-1.62,0-2.81,1.73-2.81,5.32v.65c0,4.09,1.3,5.4,2.66,5.4,.19,0,.28-.02,.5-.09v-4.5h-1.6v-1.9h3.55v7.83c-.91,.41-1.6,.63-2.53,.63-2.59,0-4.73-2.27-4.73-7.46Z"/><path class="d" d="M125.06,133.77h2.05v15.26h-2.05v-15.26Z"/><path class="d" d="M128.56,143.57v-.54c0-3.68,1.51-5.69,3.48-5.69s3.46,2.01,3.46,5.69v.54c0,3.68-1.51,5.66-3.46,5.66s-3.48-1.99-3.48-5.66Zm4.89,.02v-.61c0-2.49-.58-3.81-1.41-3.81s-1.43,1.32-1.43,3.81v.61c0,2.49,.58,3.81,1.43,3.81s1.41-1.32,1.41-3.81Z"/><path class="d" d="M138.96,147.39v1.64h-2.05v-15.26h2.05v5.43c.39-.89,1.02-1.88,2.14-1.88,1.43,0,2.62,1.51,2.62,5.53v.84c0,3.98-1.19,5.53-2.62,5.53-1.12,0-1.73-.95-2.14-1.84Zm2.7-3.78v-.65c0-2.4-.52-3.7-1.32-3.7s-1.41,1.3-1.41,3.65v.71c0,2.36,.61,3.65,1.41,3.65s1.32-1.3,1.32-3.68Z"/><path class="d" d="M144.71,145.79v-.3c0-2.46,1.06-3.68,2.7-3.68,.61,0,1.15,.17,1.64,.43v-.91c0-1.32-.63-2.03-1.77-2.03-.71,0-1.34,.24-1.99,.54v-1.97c.73-.32,1.41-.5,2.34-.5,2.2,0,3.46,1.32,3.46,3.81v7.85h-2.05v-1.36c-.45,1.02-1.08,1.56-1.99,1.56-1.36,0-2.34-1.36-2.34-3.44Zm4.35,.04v-2.08c-.32-.15-.76-.3-1.12-.3-.78,0-1.23,.65-1.23,1.9v.26c0,1.28,.43,1.88,1.1,1.88,.71,0,1.25-.69,1.25-1.66Z"/><path class="d" d="M152.75,133.77h2.05v15.26h-2.05v-15.26Z"/><path class="d" d="M159.77,141.71v-.48c0-5.23,1.95-7.44,4.3-7.44,.73,0,1.12,.11,1.66,.37v2.21c-.54-.32-.97-.5-1.47-.5-1.32,0-2.33,1.41-2.33,5.34v.52c0,4.09,1.02,5.34,2.36,5.34,.45,0,.95-.15,1.49-.48v2.1c-.54,.32-1.1,.45-1.84,.45-2.36,0-4.17-2.25-4.17-7.44Z"/><path class="d" d="M166.73,143.57v-.54c0-3.68,1.51-5.69,3.48-5.69s3.46,2.01,3.46,5.69v.54c0,3.68-1.51,5.66-3.46,5.66s-3.48-1.99-3.48-5.66Zm4.89,.02v-.61c0-2.49-.58-3.81-1.41-3.81s-1.43,1.32-1.43,3.81v.61c0,2.49,.58,3.81,1.43,3.81s1.41-1.32,1.41-3.81Z"/><path class="d" d="M175.01,146.05v-8.54h2.05v8.09c0,1.17,.43,1.79,1.15,1.79s1.28-.69,1.28-1.84v-8.04h2.05v11.52h-2.05v-1.47c-.43,.91-1.06,1.66-2.14,1.66-1.49,0-2.34-1.25-2.34-3.18Z"/><path class="d" d="M183.23,137.51h2.05v1.51c.37-.99,1.02-1.71,2.1-1.64v2.44h-.04c-1.28,0-2.05,.84-2.05,2.59v6.62h-2.05v-11.52Z"/><path class="d" d="M188.55,133.77h2.12v2.25h-2.12v-2.25Zm.04,3.74h2.05v11.52h-2.05v-11.52Z"/><path class="d" d="M192.05,143.54v-.45c0-3.78,1.56-5.75,3.39-5.75s3.18,2.01,3.18,5.75v1.12h-4.52c.11,2.2,1.02,3.09,2.08,3.09,.76,0,1.25-.28,2.01-.78l.17,1.9c-.87,.54-1.51,.8-2.46,.8-2.08,0-3.85-1.92-3.85-5.69Zm4.63-.97c0-2.14-.45-3.39-1.23-3.39s-1.3,1.06-1.36,3.39h2.59Z"/><path class="d" d="M199.92,137.51h2.05v1.51c.37-.99,1.02-1.71,2.1-1.64v2.44h-.04c-1.28,0-2.05,.84-2.05,2.59v6.62h-2.05v-11.52Z"/><path class="d" d="M208.24,145.79v-.3c0-2.46,1.06-3.68,2.7-3.68,.61,0,1.15,.17,1.64,.43v-.91c0-1.32-.63-2.03-1.77-2.03-.71,0-1.34,.24-1.99,.54v-1.97c.73-.32,1.41-.5,2.34-.5,2.2,0,3.46,1.32,3.46,3.81v7.85h-2.05v-1.36c-.45,1.02-1.08,1.56-1.99,1.56-1.36,0-2.34-1.36-2.34-3.44Zm4.35,.04v-2.08c-.32-.15-.76-.3-1.12-.3-.78,0-1.23,.65-1.23,1.9v.26c0,1.28,.43,1.88,1.1,1.88,.71,0,1.25-.69,1.25-1.66Z"/><path class="d" d="M216.22,137.51h2.05v1.47c.43-.91,1.06-1.66,2.14-1.66,1.49,0,2.33,1.25,2.33,3.2v8.52h-2.05v-8.09c0-1.17-.43-1.79-1.15-1.79s-1.28,.69-1.28,1.84v8.04h-2.05v-11.52Z"/><path class="d" d="M224.13,143.7v-.84c0-3.98,1.17-5.53,2.62-5.53,1.12,0,1.73,.97,2.12,1.84v-5.38h2.08v15.26h-2.08v-1.66c-.39,.86-.99,1.86-2.12,1.86-1.45,0-2.62-1.51-2.62-5.53Zm4.78-.06v-.71c0-2.36-.61-3.65-1.41-3.65s-1.32,1.32-1.32,3.7v.65c0,2.38,.5,3.68,1.32,3.68s1.41-1.28,1.41-3.65Z"/><path class="d" d="M236.17,133.9h2.14v13.12h3.09v2.01h-5.23v-15.13Z"/><path class="d" d="M241.99,143.57v-.54c0-3.68,1.51-5.69,3.48-5.69s3.46,2.01,3.46,5.69v.54c0,3.68-1.51,5.66-3.46,5.66s-3.48-1.99-3.48-5.66Zm4.89,.02v-.61c0-2.49-.58-3.81-1.41-3.81s-1.43,1.32-1.43,3.81v.61c0,2.49,.58,3.81,1.43,3.81s1.41-1.32,1.41-3.81Z"/><path class="d" d="M250.57,151.5v-1.92c.73,.28,1.69,.5,2.27,.5,1.25,0,1.99-.56,1.99-1.97v-1.6c-.39,.89-1.02,1.86-2.14,1.86-1.43,0-2.59-1.54-2.59-5.45v-.15c0-3.91,1.17-5.45,2.59-5.45,1.12,0,1.75,.95,2.14,1.84v-1.64h2.08v10.72c0,2.62-1.49,3.65-3.85,3.65-.97,0-1.69-.15-2.49-.39Zm4.3-8.6v-.09c0-2.31-.65-3.55-1.41-3.55s-1.32,1.21-1.32,3.55v.06c0,2.36,.54,3.55,1.32,3.55s1.41-1.21,1.41-3.52Z"/><path class="d" d="M258.61,133.77h2.12v2.25h-2.12v-2.25Zm.04,3.74h2.05v11.52h-2.05v-11.52Z"/><path class="d" d="M262,148.69v-2.05c.84,.45,1.58,.71,2.23,.71s1.17-.43,1.17-1.1v-.04c0-.58-.26-1.08-1.45-2.21-1.32-1.3-2.01-2.29-2.01-3.65v-.04c0-1.82,1.28-2.94,3.07-2.94,.71,0,1.25,.09,1.88,.32v2.03c-.58-.3-1.19-.5-1.79-.5-.69,0-1.15,.41-1.15,1.02v.04c0,.56,.26,.95,1.49,2.18,1.49,1.43,1.97,2.36,1.97,3.65v.04c0,1.88-1.36,3.07-3.07,3.07-.8,0-1.6-.22-2.33-.54Z"/><path class="d" d="M268.75,147.07v-7.85h-.82v-1.71h.82v-3.03h2.05v3.03h1.49v1.71h-1.49v7.2c0,.67,.3,.89,.84,.89,.22,0,.45-.04,.65-.13v1.69c-.32,.17-.84,.3-1.28,.3-1.23,0-2.27-.43-2.27-2.1Z"/><path class="d" d="M273.59,133.77h2.12v2.25h-2.12v-2.25Zm.04,3.74h2.05v11.52h-2.05v-11.52Z"/><path class="d" d="M277.14,143.57v-.54c0-3.78,1.6-5.66,3.59-5.66,.69,0,1.06,.09,1.53,.32v2.12c-.43-.26-.84-.45-1.32-.45-.91,0-1.73,1.02-1.73,3.63v.63c0,2.62,.8,3.63,1.79,3.63,.39,0,.84-.22,1.25-.52v2.05c-.52,.3-.95,.45-1.58,.45-2.05,0-3.55-1.86-3.55-5.66Z"/><path class="d" d="M283.13,148.69v-2.05c.84,.45,1.58,.71,2.23,.71s1.17-.43,1.17-1.1v-.04c0-.58-.26-1.08-1.45-2.21-1.32-1.3-2.01-2.29-2.01-3.65v-.04c0-1.82,1.28-2.94,3.07-2.94,.71,0,1.25,.09,1.88,.32v2.03c-.58-.3-1.19-.5-1.79-.5-.69,0-1.15,.41-1.15,1.02v.04c0,.56,.26,.95,1.49,2.18,1.49,1.43,1.97,2.36,1.97,3.65v.04c0,1.88-1.36,3.07-3.07,3.07-.8,0-1.6-.22-2.33-.54Z"/></g></svg>