<?xml version="1.0" encoding="UTF-8"?><svg id="a" xmlns="http://www.w3.org/2000/svg" viewBox="0 0 350 200"><defs><style>.b{fill:#95bf47;}.c{fill:#5e8e3e;}</style></defs><path d="M232.01,94.67c2.38-2.55,4.76-4.59,7.99-5.61,7.31-2.55,14.1,1.02,15.46,8.84,2.04,11.55-1.02,21.75-10.19,29.23-5.1,4.25-11.21,5.1-17.5,2.72-1.02-.34-1.02,0-1.19,.68-.85,4.59-1.7,9.35-2.55,13.93-.17,1.53-.68,2.21-2.38,2.04-2.72-.17-5.44-.17-8.16,0-1.36,0-1.36-.34-1.19-1.53,1.36-7.14,2.72-14.44,4.08-21.58,2.04-10.7,4.25-21.24,5.78-31.94q.34-2.55,3.06-2.55h6.46c.85,0,1.19,.17,1.02,1.19-.34,1.36-.51,2.89-.68,4.59Zm12.06,9.69v-.85c-.17-2.21-.51-4.42-3.06-5.27s-4.42,.34-6.12,2.04c-1.87,1.87-3.06,4.25-3.74,6.8-1.19,3.91-1.53,8.16-2.38,12.06-.34,1.36,.17,1.87,1.19,2.38,3.4,1.53,6.97,.51,9.52-3.23,3.06-4.25,4.42-8.84,4.59-13.93Z"/><path d="M155.88,71.05c-1.53,7.65-2.89,15.12-4.42,23.11,1.53-1.36,2.55-2.55,3.91-3.4,3.57-2.21,7.31-3.23,11.38-2.21,3.57,.85,5.95,4.08,6.29,7.99,.51,4.59-.51,9.01-1.36,13.42-1.19,6.29-2.38,12.74-3.57,19.03-.17,.85-.34,1.19-1.36,1.19h-9.52c-1.02,0-1.02-.34-.85-1.19,1.53-7.82,3.06-15.46,4.42-23.28,.34-1.7,.34-3.23,.17-4.93-.34-2.21-1.87-3.4-4.08-3.06-2.04,.34-3.4,1.53-4.59,3.06-2.38,3.06-3.4,6.8-4.08,10.53-1.02,5.95-2.21,11.72-3.4,17.67-.17,.85-.51,1.02-1.36,1.02h-9.35c-1.02,0-1.19-.17-1.02-1.19,1.53-7.99,3.06-15.97,4.59-23.79,2.04-10.7,4.08-21.41,6.12-32.11,.34-1.53,.68-2.04,2.38-1.87,3.06,.17,6.29,0,9.69,0Z"/><path d="M322.57,116.59c.85-2.38,1.7-4.76,2.55-6.97,2.38-6.46,4.93-12.74,7.31-19.2,.34-.85,.68-1.36,1.87-1.36,3.57,.17,6.97,0,10.53,0,0,.17,.17,.17,.17,.34-5.95,12.57-11.38,25.32-18.01,37.55-2.89,5.44-6.29,10.53-10.7,14.95-3.06,2.89-6.46,5.1-10.53,6.29-1.02,.34-1.53,0-1.7-.85-.68-2.38-1.36-4.93-2.38-7.14-.51-1.19-.17-1.53,.85-2.04,4.42-1.7,8.16-4.42,10.7-8.5,.85-1.36,1.02-2.55,.68-4.08-2.21-11.89-4.42-23.79-6.63-35.51-.17-.68-.17-1.02,.68-1.02h10.53c1.02,0,.85,.68,1.02,1.19,.51,4.42,.85,8.67,1.36,13.08,.51,4.42,.85,8.84,1.36,13.25h.34Z"/><path d="M176.27,111.32c.34-5.61,2.89-13.25,9.86-18.69,6.12-4.76,13.25-6.12,20.56-2.89,4.93,2.04,7.48,6.29,7.99,11.38,1.02,9.35-1.36,18.01-8.67,24.3-6.12,5.44-13.42,6.8-21.24,3.74-5.78-2.04-8.84-7.82-8.5-17.84Zm26.68-6.63c0-.85,0-1.7-.17-2.38-.34-2.04-1.19-3.91-3.4-4.76-2.21-.68-4.08-.17-5.78,1.36-1.02,.85-1.7,1.87-2.38,2.89-1.7,2.89-2.55,5.95-3.06,9.35-.34,2.38-.51,4.76,.34,7.14,1.36,3.91,5.61,5.1,8.67,2.21,1.19-1.02,2.21-2.38,2.89-3.91,1.87-3.74,2.72-7.65,2.89-11.89Z"/><path d="M278.73,97.9c.51-2.72,1.02-5.27,1.53-7.82,.17-1.02,.51-1.02,1.36-1.02h3.23c.85,0,1.02-.17,1.19-1.02,.34-2.21,.85-4.42,1.7-6.46,3.23-8.16,9.86-12.23,18.35-11.21q4.42,.51,3.4,4.76c-.17,.34-.17,.85-.34,1.19-.34,1.19-.34,2.72-1.02,3.57-.85,1.02-2.21,0-3.4,0-2.55,0-4.25,1.19-5.61,3.06-.34,.34-.51,.85-.68,1.36-.68,1.36-1.53,3.06-1.02,4.25,.68,1.53,2.55,.34,3.91,.51,1.19,.17,2.72-.34,3.4,.34s-.17,2.21-.34,3.4c-.17,1.02-.51,2.21-.51,3.23,0,1.7-.68,2.21-2.38,2.04s-3.23,0-4.93,0c-.85,0-1.02,.17-1.19,1.02-1.87,10.02-3.74,20.05-5.61,29.91-.17,1.02-.51,1.36-1.53,1.36-3.06-.17-5.95,0-9.01,0-1.02,0-1.36-.17-1.19-1.36,1.87-10.02,3.74-20.05,5.78-29.91,.17-1.02-.17-1.19-1.02-1.02-1.19-.17-2.55-.17-4.08-.17Z"/><path d="M113.07,130.86c-3.74,0-7.14-.68-10.53-2.21-.85-.34-1.19-.85-.68-1.7,.85-2.04,1.53-4.08,2.21-6.12,.34-.85,.51-1.02,1.36-.51,3.06,1.36,6.12,2.38,9.52,1.87,1.7-.17,3.06-1.02,3.57-2.72,.51-1.87-.17-3.4-1.53-4.59-1.19-1.02-2.55-1.7-3.74-2.55-2.89-1.87-5.44-4.08-6.46-7.65-1.36-4.93,.85-10.36,5.61-13.59,4.08-2.72,8.5-3.23,13.25-2.89,2.21,.17,4.59,.51,6.63,1.36,.85,.34,1.02,.68,.68,1.53-.85,2.04-1.53,4.25-2.04,6.46-.17,.68-.51,.85-1.19,.51-2.72-.85-5.44-1.7-8.33-1.02-1.7,.34-2.89,1.19-3.23,2.89-.34,1.7,.51,2.89,1.7,3.74,1.36,1.02,3.06,1.87,4.42,2.89,2.72,1.87,5.27,4.25,6.12,7.65,1.53,6.12-2.04,12.4-8.33,14.95-2.72,1.19-5.95,1.7-9.01,1.7Z"/><path d="M275.84,89.06c-2.55,13.25-5.1,26.17-7.48,39.25-.17,1.19-.68,1.7-2.04,1.7-2.89-.17-5.78-.17-8.5,0-1.36,0-1.36-.34-1.19-1.53,1.36-7.31,2.72-14.44,4.08-21.75,1.02-5.61,2.21-11.21,3.23-16.82,.17-.51,0-1.02,.85-1.02,3.74,.34,7.48,.17,11.04,.17Z"/><path d="M271.6,84.13c-3.4,0-5.61-2.21-5.61-5.78s2.89-6.63,6.63-6.63,5.78,2.21,5.78,5.78c0,3.91-2.72,6.63-6.8,6.63Z"/><path class="b" d="M59.03,146.15c-6.12-1.19-12.4-2.21-18.52-3.4-11.55-2.04-22.94-4.25-34.49-6.29-1.02-.17-1.02-.68-1.02-1.53,1.87-13.93,3.74-27.87,5.44-41.8,.51-4.25,1.19-8.67,1.7-12.91,.17-1.53,.85-2.55,2.38-2.89,2.72-.68,5.27-1.7,7.99-2.38,.85-.17,1.19-.68,1.53-1.53,1.53-5.44,3.57-10.7,7.14-15.12,3.06-3.74,6.8-6.46,11.89-6.63,1.87,0,3.57,.51,4.93,1.87,.51,.51,.85,.85,1.53,.85,3.23,0,5.44,1.87,7.31,4.42,.85,1.19,1.36,2.38,1.87,3.74,.34,.85,.68,1.02,1.53,.85,1.02-.34,2.04-1.02,3.06-.51-.34,.17-.34,.51-.34,.85-.17,3.4-.51,6.97-.51,10.36-.17,6.29-.68,12.57-.85,18.86-.17,4.25-.51,8.33-.51,12.57-.17,5.78-.68,11.38-.85,17.16,0,2.21-.17,4.25-.34,6.46-.17,5.61-.51,11.38-.85,16.99Zm-19.88-76.63c2.89-.51,5.61-1.7,8.5-2.38,.51-.17,.68-.51,.68-.85,0-2.38-.17-4.59-.85-6.97-.17-.68-.51-1.02-1.19-.51-4.08,2.55-6.29,6.12-7.14,10.7h0Zm-18.86,48.6c-.85,2.55-1.53,5.1-2.38,7.65-.34,.85,.34,1.02,.68,1.36,4.08,3.57,8.67,5.1,13.93,4.76,3.4-.17,6.29-1.36,8.67-3.91,5.95-6.29,5.1-16.31-1.7-22.09-1.7-1.36-3.57-2.72-5.44-4.25-1.36-1.02-2.04-2.55-1.53-4.25,.51-1.7,1.87-2.55,3.57-2.89,2.89-.68,5.61-.17,8.16,1.02,1.02,.34,1.36,.17,1.53-.85,.85-2.89,1.87-5.61,2.89-8.33,.34-1.02,0-1.53-.85-1.7-3.4-1.02-6.8-1.19-10.19-.51-6.63,1.02-11.55,4.42-14.1,10.7-2.21,5.95-1.87,12.23,4.08,16.48,.85,.68,1.7,1.53,2.55,2.21,1.02,.85,1.87,1.87,2.38,3.06,1.02,2.72-.68,5.61-3.74,5.27-1.36-.17-2.72-.51-4.08-1.19-1.36-.34-2.89-1.53-4.42-2.55Zm7.31-44.86c2.04-.68,3.74-1.19,5.44-1.53,1.36-.34,2.04-1.02,2.55-2.55,1.36-5.44,3.74-10.36,8.84-13.59,.17,0,.17-.34,.17-.34-.68-.34-1.36-.34-2.04-.34-2.72,.34-4.93,1.53-6.97,3.57-4.08,3.91-6.12,9.18-7.99,14.78Zm23.96-7.48c1.36-.34,2.38-.68,3.57-1.19,.51-.17,.68-.34,.51-1.02-.68-1.87-1.53-3.74-3.06-5.1-.51-.51-1.02-.85-2.04-.85,.68,2.89,1.02,5.44,1.02,8.16Z"/><path class="c" d="M59.03,146.15c.34-5.78,.68-11.55,.85-17.33,.17-2.21,.17-4.42,.34-6.46,.17-5.78,.68-11.38,.85-17.16,0-4.25,.34-8.33,.51-12.57,.34-6.29,.68-12.57,.85-18.86,.17-3.4,.34-6.97,.51-10.36,0-.34,0-.68,.34-.85,1.87,1.02,3.06,2.72,4.59,4.25,1.02,1.02,2.21,1.7,3.74,1.7s3.06,.17,4.42,.34c1.19,0,1.87,.51,2.04,1.87,1.19,8.16,2.38,16.14,3.57,24.3,1.87,12.91,3.74,25.83,5.78,38.74,.17,1.53,.34,3.06,.68,4.59,.34,1.36-.17,1.87-1.36,2.04-8.67,1.87-17.33,3.74-26,5.61-.51,0-1.19,.17-1.7,.17Z"/></svg>