<?xml version="1.0" encoding="UTF-8"?><svg id="a" xmlns="http://www.w3.org/2000/svg" viewBox="0 0 350 200"><defs><style>.b{fill:#ee4d2d;}</style></defs><path class="b" d="M53.77,46.14c-.17,.34,.17,.34,.34,.34,7.65,1.53,12.74,6.29,16.14,13.08,1.7,3.23,2.55,6.8,2.72,10.36,0,.68,.17,.85,.85,.85h19.54c2.04,0,2.72,.68,2.55,2.72-.34,7.65-.68,15.29-1.19,23.11-.51,10.02-1.02,20.22-1.53,30.24-.17,4.08-.34,8.33-.68,12.4-.17,4.93-4.42,8.84-9.52,8.84-21.92-.17-43.84,0-65.93,0-5.27,0-8.84-4.08-9.01-8.5-.34-7.31-.68-14.78-1.02-22.09-.34-8.5-.85-16.99-1.19-25.49-.17-4.42-.34-8.84-.68-13.42,0-.17,0-.51-.17-.68h0v-5.95s.17,.17,.17,0c.51-1.02,1.53-1.19,2.55-1.02H27.26c.68,0,.85-.17,.85-.85,.34-4.08,1.36-7.99,3.23-11.55,3.4-6.12,8.33-10.53,15.46-11.89,.17,0,.51,.17,.34-.34,2.38-.17,4.59-.17,6.63-.17Zm-2.72,88.53c2.89,0,5.61-.51,8.16-1.7,6.46-2.89,9.86-10.36,7.48-16.65-1.02-2.89-3.23-4.76-5.78-6.46-3.57-2.38-7.65-3.74-11.55-5.1-2.38-.85-4.59-1.7-6.46-3.23-3.57-2.89-3.91-7.31-.85-10.53,1.02-1.19,2.38-1.87,3.91-2.38,3.06-1.02,6.12-.68,9.01,0,2.55,.51,4.93,1.53,7.14,3.06,.51,.34,.85,.51,1.19,0,.51-.85,1.02-1.7,1.7-2.55,.34-.34,.17-.85-.17-1.02-.34-.34-.68-.51-1.19-.68-3.74-2.21-7.99-3.4-12.4-3.74-3.74-.17-7.31,.51-10.36,2.55-4.76,2.89-6.97,8.33-5.61,13.42,1.19,4.08,4.08,6.63,7.65,8.33,2.89,1.36,5.95,2.55,9.01,3.57,2.72,.85,5.44,2.04,7.65,4.08,1.53,1.53,2.72,3.23,2.72,5.61,0,3.74-1.87,6.12-5.1,7.65-3.91,1.87-7.99,1.87-12.23,.68-3.23-.85-5.95-2.55-8.5-4.42-.68-.51-1.02-.51-1.53,.17s-1.02,1.53-1.53,2.21-.34,1.02,.17,1.53c5.27,3.57,11.04,5.44,17.5,5.61Zm-.51-64.06h15.29c.51,0,.85,0,.85-.68-.51-5.27-2.38-10.02-6.29-13.76-5.1-4.93-12.74-5.44-18.52-1.19-4.93,3.74-7.14,9.01-7.65,14.95,0,.68,.34,.68,.85,.68h15.46Z"/><path class="b" d="M234.39,153.52c-.85-2.72-.34-5.44-.34-7.99v-41.97c0-1.7,.17-1.7,1.7-1.7h3.4c1.02,0,1.19,.17,1.19,1.36v1.7c0,.17,0,.51,.17,.51,.17,.17,.34-.17,.51-.17,2.21-1.53,4.59-2.55,7.31-3.06,9.18-1.7,18.69,5.1,19.88,14.27,1.19,9.35-4.59,17.67-13.93,19.37-4.76,.85-9.01-.17-12.91-2.89-.17-.17-.34-.51-.68-.34-.34,.17-.17,.51-.17,.85v18.35c0,.68-.17,1.36-.51,2.04-2.04-.34-3.74-.34-5.61-.34Zm27.53-34.49c0-5.95-4.76-10.87-10.7-10.87s-10.87,4.93-10.87,10.7,4.93,10.7,10.7,10.7c5.95,.17,10.87-4.76,10.87-10.53Z"/><path class="b" d="M345,120.05c-.17-.34-.34,0-.34,.17-.51,.85-1.19,1.19-2.21,1.19h-23.28c-.68,0-.85,.17-.51,.85,.85,2.72,2.55,4.76,5.1,6.12,4.76,2.72,11.55,1.87,15.97-1.87,1.19-1.02,1.53-1.02,2.38,.34,.51,.85,1.02,1.53,1.53,2.38,.68,1.02,.68,1.53-.34,2.38-1.36,1.36-3.23,2.38-5.1,3.06-5.61,2.04-11.04,2.21-16.48-.17-6.63-2.89-10.7-10.02-9.86-17.16,.85-7.48,5.95-13.42,13.08-14.95,8.84-1.87,17.67,4.08,19.54,13.08,.17,.51,0,1.02,.34,1.53h0l.17-.17c0,1.02,0,2.04,0,3.23Zm-16.65-5.1h8.84c.68,0,.68-.17,.51-.68-.68-1.53-1.87-2.89-3.06-3.91-5.27-4.08-13.25-2.21-15.46,3.91-.17,.51-.17,.85,.51,.85,2.89-.17,5.78-.17,8.67-.17Z"/><path class="b" d="M133.12,136.19c-6.8-.34-12.57-2.21-17.67-6.29-1.19-.85-1.19-1.19-.34-2.38,.51-.85,1.02-1.7,1.7-2.55,.68-1.02,1.36-1.19,2.38-.34,1.7,1.36,3.57,2.38,5.44,3.23,4.25,1.87,8.67,2.55,13.25,1.19,1.7-.51,3.23-1.19,4.42-2.38,3.23-2.89,3.57-7.31,.51-10.36-2.04-2.21-4.59-3.57-7.48-4.42-3.57-1.19-7.14-2.21-10.53-3.74-3.74-1.7-6.97-4.25-8.33-8.33-2.04-5.44,.17-11.72,5.27-15.12,3.91-2.72,8.16-3.4,12.91-3.06,4.59,.34,8.67,1.7,12.57,4.08,1.53,1.02,1.7,1.53,.68,3.06-.51,.68-1.02,1.36-1.36,2.04-.68,1.02-1.19,1.19-2.38,.51-2.21-1.36-4.59-2.38-7.14-3.06-3.4-.68-6.8-.85-10.19,.85-2.72,1.53-4.42,3.57-4.25,6.8,0,2.21,1.36,3.74,2.89,5.1,2.04,1.53,4.42,2.55,6.8,3.23,3.91,1.19,7.65,2.55,11.21,4.59,2.38,1.36,4.59,3.06,6.12,5.44,2.89,4.59,2.21,11.55-1.53,15.97-2.72,3.23-6.46,4.93-10.53,5.61-1.53,.17-3.06,.34-4.42,.34Z"/><path class="b" d="M163.02,104.93c2.04-1.36,3.91-2.21,6.12-2.72,3.4-.68,6.63-.34,9.86,1.02s5.95,3.74,7.65,6.8c1.36,2.21,2.04,4.76,2.04,7.48v17.16c0,1.19-.17,1.36-1.53,1.36h-3.91c-.68,0-1.19-.34-1.19-1.02v-16.99c0-7.14-7.14-11.72-13.59-8.84-3.74,1.7-5.61,4.76-5.61,9.01v16.31c0,1.36-.34,1.53-1.7,1.53h-3.74c-.68,0-1.19-.17-1.19-1.02v-51.31c0-2.04,0-2.21,2.21-2.21h2.72c1.36,0,1.7,.17,1.7,1.7v20.73c.17,.17,.17,.51,.17,1.02Z"/><path class="b" d="M292.67,121.24h-11.55q-1.02,0-.68,1.02c1.53,4.08,4.59,6.46,8.84,7.31,3.06,.51,6.12,.17,9.01-1.19,1.02-.51,2.21-1.19,3.06-2.04s1.7-1.02,2.38,.17c.51,.85,1.19,1.7,1.7,2.55s.51,1.19-.17,2.04c-2.21,2.21-5.1,3.4-7.99,4.08-2.04,.51-4.25,.85-6.46,.68-5.95-.34-10.87-2.72-14.27-7.65-1.53-2.21-2.38-4.59-2.72-7.31-.68-6.46,1.53-11.72,6.29-15.8,3.57-2.89,7.82-4.08,12.4-3.23,7.14,1.19,11.55,5.61,13.59,12.4,.34,1.36,.51,2.72,.51,4.25,0,1.7-.68,2.55-2.38,2.55-3.91,.17-7.65,.17-11.55,.17Zm6.97-6.29c0-.51-.17-.85-.34-1.19-2.55-4.25-6.29-5.95-11.04-5.44-3.57,.51-5.95,2.55-7.31,5.78-.34,.68-.17,.85,.51,.85h18.18Z"/><path class="b" d="M211.11,136.02c-9.69,0-17.33-7.65-17.33-17.33s8.5-17.16,17.84-16.82c9.01,.17,17.16,7.48,16.99,17.5,0,9.18-7.82,16.65-17.5,16.65Zm11.21-16.99c.17-5.78-4.76-10.7-10.87-10.87-5.95-.17-10.87,4.59-11.04,10.7-.17,5.78,4.76,10.7,10.87,10.87,5.78,.17,10.87-4.59,11.04-10.7Z"/></svg>