<?xml version="1.0" encoding="UTF-8"?><svg id="a" xmlns="http://www.w3.org/2000/svg" xmlns:xlink="http://www.w3.org/1999/xlink" viewBox="0 0 350 200"><defs><style>.f{fill:url(#b);}.g{fill:#f624a0;}.h{fill:#0f146d;}.i{fill:#f58000;isolation:isolate;opacity:.41;}</style><linearGradient id="b" x1="-909.3" y1="-265.2" x2="-906.71" y2="-265.2" gradientTransform="translate(30929.54 7424.18) scale(34.01 27.62)" gradientUnits="userSpaceOnUse"><stop offset="0" stop-color="#ff9200"/><stop offset=".29" stop-color="#f36d00"/><stop offset=".32" stop-color="#f4680b"/><stop offset=".57" stop-color="#f83c72"/><stop offset=".78" stop-color="#fc1cbe"/><stop offset=".93" stop-color="#fe08ed"/><stop offset="1" stop-color="#f0f"/></linearGradient></defs><path class="h" d="M122.9,73.03h8.5v40.96h14.67v8.1h-23.12l-.06-49.07Zm42.83,12.29c4.53-.06,8.78,1.98,11.56,5.55v-4.82h7.93v36.09h-7.93v-4.82c-2.78,3.57-7.03,5.61-11.56,5.55-9.92,0-17.39-8.44-17.39-18.75s7.54-18.81,17.39-18.81Zm1.47,7.25c-6.4,0-10.65,5.04-10.65,11.56s4.31,11.56,10.65,11.56,10.65-5.04,10.65-11.56-4.25-11.56-10.65-11.56Zm24.19,23.29l18.92-22.61h-18.64v-7.2h28.9v6.35l-18.81,22.49h19.26v7.2h-29.58v-6.23h-.06Zm49.8-30.54c4.53-.06,8.78,1.98,11.56,5.55v-4.82h7.93v36.09h-7.93v-4.82c-2.78,3.57-7.03,5.61-11.56,5.55-9.92,0-17.39-8.44-17.39-18.75s7.48-18.81,17.39-18.81Zm1.42,7.25c-6.4,0-10.65,5.04-10.65,11.56s4.31,11.56,10.65,11.56,10.65-5.04,10.65-11.56-4.19-11.56-10.65-11.56Zm40.74-7.25c4.48-.06,8.78,1.98,11.56,5.55v-20.74h7.93v52.01h-7.93v-4.82c-2.78,3.57-7.03,5.61-11.56,5.55-9.92,0-17.39-8.44-17.39-18.75,0-10.37,7.48-18.81,17.39-18.81Zm1.47,7.25c-6.4,0-10.65,5.04-10.65,11.56s4.36,11.56,10.65,11.56,10.65-5.04,10.65-11.56-4.25-11.56-10.65-11.56Zm40.68-7.25c4.48-.06,8.78,1.98,11.56,5.55v-4.82h7.93v36.09h-7.93v-4.82c-2.78,3.57-7.03,5.61-11.56,5.55-9.92,0-17.39-8.44-17.39-18.75-.06-10.37,7.48-18.81,17.39-18.81Zm1.42,7.25c-6.4,0-10.65,5.04-10.65,11.56s4.36,11.56,10.65,11.56,10.65-5.04,10.65-11.56-4.19-11.56-10.65-11.56Z"/><path id="c" class="f" d="M48.97,135.69c-.62,0-1.25-.17-1.76-.45-4.65-2.66-39.04-24.25-40.34-24.93-.96-.45-1.64-1.42-1.76-2.49v-30.25c0-1.13,.51-2.21,1.47-2.83l.23-.17c3.34-2.04,14.45-8.84,16.2-9.86,.4-.23,.85-.4,1.36-.4,.45,0,.85,.11,1.25,.34,0,0,15.58,10.14,17.96,11.05,1.7,.79,3.51,1.13,5.33,1.13,2.1,.06,4.14-.45,6.01-1.47,2.32-1.25,17.22-10.65,17.39-10.65,.4-.23,.79-.34,1.25-.34s.91,.11,1.36,.4c2.04,1.13,15.86,9.58,16.43,9.97h0c.96,.57,1.59,1.64,1.53,2.78v30.25c-.11,1.08-.79,2.04-1.76,2.49-1.3,.74-35.58,22.27-40.34,24.93-.57,.34-1.19,.51-1.81,.51Z"/><path id="d" class="g" d="M48.8,135.69h.17c.62,0,1.25-.17,1.76-.45,4.65-2.66,39.04-24.25,40.34-24.93,1.02-.45,1.64-1.42,1.76-2.49v-30.25c0-.51-.11-1.02-.34-1.47l-43.74,24.02v35.58h.06Z"/><path id="e" class="i" d="M5,107.76c.11,1.08,.85,2.04,1.87,2.49,1.3,.74,35.69,22.27,40.34,24.93,.45,.28,1.02,.45,1.59,.45v-35.58L5.23,76.43c-.11,.34-.17,.74-.17,1.13v30.2h-.06Z"/></svg>