<?xml version="1.0" encoding="UTF-8"?><svg id="a" xmlns="http://www.w3.org/2000/svg" viewBox="0 0 350 200"><defs><style>.b{fill:#f54343;}.c{fill:#3d3f56;}</style></defs><path class="c" d="M316.04,95.82c-.58,.32-.69,.9-.94,1.37-3.78,7.07-7.82,13.99-12.34,20.62-2.71,3.97-6.46,3.86-8.87-.26-.1-.17-.2-.35-.3-.52-3.87-6.67-7.73-13.35-11.61-20.01-.26-.45-.39-1.02-.97-1.29-.33,.53-.16,1.08-.16,1.6-.01,8.91,0,17.83-.01,26.74,0,2.61-1.23,4.33-3.39,4.87-2.46,.61-4.95-1.02-5.34-3.54-.1-.64-.1-1.3-.1-1.95,0-14.47,0-28.95,0-43.42,0-.45,0-.9,.03-1.35,.17-2.06,1.48-3.64,3.38-4.12,1.81-.45,3.68,.29,4.77,2.06,2.19,3.59,4.31,7.23,6.46,10.84,3.7,6.25,7.42,12.48,11.09,18.75,.65,1.11,.93,1.12,1.59,0,5.74-9.76,11.53-19.48,17.29-29.22,1.01-1.7,2.39-2.7,4.42-2.51,1.75,.16,2.94,1.17,3.64,2.76,.29,.65,.34,1.35,.34,2.06,0,14.97,0,29.95,0,44.92,0,2.87-1.88,4.89-4.41,4.87-2.55-.02-4.35-1.99-4.35-4.9-.02-8.86,0-17.73-.01-26.59,0-.58,.12-1.19-.18-1.78Z"/><path class="c" d="M52.25,109.02c0-7.66-.02-15.31,0-22.97,.04-10.67,6.91-19,17.35-21.07q3.64-.72,3.64,2.9c0,15.41,.03,30.83-.01,46.24-.03,10.53-7.02,18.91-17.35,20.91q-3.63,.7-3.63-2.89c0-7.71,0-15.41,0-23.12Z"/><path class="c" d="M137.59,96.66c0,5.66,.14,11.32-.04,16.97-.23,7.27-5.42,13.38-12.49,15.05-1.22,.29-2.47,.46-3.72,.4-2.41-.11-4.23-2.02-4.27-4.39-.04-2.4,1.7-4.46,4.07-4.54,4.75-.17,7.53-3.07,7.62-8.59,.18-10.31,.05-20.62,.05-30.94,0-.5-.01-1,.01-1.5,.13-2.64,2-4.53,4.46-4.5,2.4,.02,4.19,1.87,4.33,4.47,.02,.45,.01,.9,.01,1.35,0,5.41,0,10.81,0,16.22h-.05Z"/><path class="b" d="M35.04,135.26c-5.69-.05-10.11-4.61-10.04-10.33,.07-5.63,4.57-10.03,10.22-9.99,5.72,.04,10.17,4.54,10.13,10.25-.05,5.68-4.6,10.13-10.31,10.07Z"/><path class="c" d="M173.05,74.51c-14.71,.01-26.59,12.21-26.57,27.3,.02,15.15,11.92,27.3,26.74,27.3,14.81,0,26.74-12.2,26.72-27.32-.02-15.26-11.88-27.29-26.89-27.28Zm.08,45.61c-9.89-.04-17.92-8.31-17.87-18.41,.06-10.17,8.05-18.24,18.03-18.22,9.96,.03,17.89,8.19,17.84,18.38-.04,10.15-8.07,18.29-18.01,18.24Z"/><path class="c" d="M234.25,74.51c-14.7,.02-26.57,12.24-26.55,27.33,.02,15.14,11.94,27.28,26.78,27.27,14.81,0,26.71-12.2,26.68-27.35-.03-15.28-11.87-27.27-26.91-27.25Zm.25,45.61c-9.91,.03-17.97-8.15-18-18.27-.03-10.17,7.92-18.33,17.88-18.36,9.99-.02,17.95,8.04,17.99,18.24,.04,10.13-7.95,18.36-17.87,18.38Z"/></svg>