<?xml version="1.0" encoding="UTF-8"?><svg id="a" xmlns="http://www.w3.org/2000/svg" viewBox="0 0 350 200"><defs><style>.b{fill:#ed7700;}.c{fill:#3b1e86;}</style></defs><g><g><polygon class="b" points="283.73 140.43 272.1 127.39 260.58 140.43 236.33 140.43 260.03 113.8 236.33 87.17 261.34 87.17 273.08 100.1 284.38 87.17 308.51 87.17 284.92 113.69 308.83 140.43 283.73 140.43"/><polygon class="b" points="189.76 140.43 189.76 56.53 236.33 56.53 236.33 75.23 209.49 75.23 209.49 87.17 236.33 87.17 236.33 105.16 209.49 105.16 209.49 121.68 236.33 121.68 236.33 140.43 189.76 140.43"/></g><path class="c" d="M170.12,56.53v34.34h-.22c-4.35-5-9.78-6.74-16.09-6.74-12.92,0-22.65,8.78-26.06,20.39-3.9-12.79-13.94-20.63-28.83-20.63-12.1,0-21.64,5.43-26.63,14.27v-11h-25v-11.94h27.28v-18.7H25v83.9h22.29v-35.27h22.21c-.66,2.59-1.02,5.37-1.02,8.29,0,17.5,13.37,29.79,30.43,29.79,14.35,0,23.8-6.74,28.81-19.02h-19.1c-2.58,3.7-4.54,4.79-9.71,4.79-5.99,0-11.15-5.22-11.15-11.42h38.89c1.69,13.9,12.51,25.89,27.37,25.89,6.41,0,12.28-3.15,15.87-8.48h.22v5.44h19.64V56.53h-19.64Zm-81.73,48.88c1.24-5.33,5.37-8.81,10.53-8.81,5.68,0,9.6,3.38,10.64,8.81,.43,0-21.17,0-21.17,0Zm69.81,22.25c-7.24,0-11.74-6.75-11.74-13.79,0-7.53,3.91-14.77,11.74-14.77s11.35,7.24,11.35,14.77c0,7.14-3.42,13.79-11.35,13.79Z"/></g><path class="b" d="M314.21,135.02c0-2.97,2.41-5.39,5.41-5.39s5.38,2.42,5.38,5.39-2.4,5.41-5.38,5.41-5.41-2.41-5.41-5.41Zm9.84,0c0-2.44-1.98-4.44-4.43-4.44s-4.46,2-4.46,4.44,1.99,4.46,4.46,4.46,4.43-1.99,4.43-4.46Zm-5.58,.36v2.75h-.99v-6.35h2.05c1.16,0,2.37,.32,2.37,1.75,0,.73-.44,1.31-1.29,1.48v.03c.88,.17,.97,.56,1.08,1.25,.09,.6,.16,1.26,.38,1.84h-1.26c-.07-.36-.17-.76-.22-1.14-.07-.54-.07-1.05-.36-1.35-.24-.26-.57-.23-.92-.26h-.83Zm1.05-.98c.93-.03,1.15-.42,1.15-.91s-.21-.72-1-.72h-1.19v1.62h1.05Z"/></svg>