<?xml version="1.0" encoding="UTF-8"?><svg id="a" xmlns="http://www.w3.org/2000/svg" viewBox="0 0 350 200"><defs><style>.b{fill:#005bff;}.c{fill:#001a34;}</style></defs><path class="b" d="M85.54,110.24h-16.61l21.24-28.03c.46-.6,.3-1.51-.3-1.96-.23-.15-.53-.3-.83-.3h-30.72c-2.73,0-4.93,2.19-4.93,4.91s2.2,4.91,4.93,4.91h13.8l-21.31,27.96c-.46,.6-.38,1.51,.23,1.96,.23,.23,.53,.3,.91,.3h33.6c2.73-.15,4.78-2.42,4.63-5.14-.08-2.49-2.12-4.46-4.63-4.61Zm107.32-30.3c-2.73,0-4.93,2.19-4.93,4.91v16.4l-26.55-21.01c-.61-.45-1.52-.38-1.97,.23-.23,.23-.3,.6-.3,.91v33.7c0,2.72,2.2,4.91,4.93,4.91s4.93-2.19,4.93-4.91v-16.4l26.55,21.01c.61,.45,1.52,.38,1.97-.23,.23-.23,.3-.53,.3-.91v-33.7c0-2.72-2.2-4.91-4.93-4.91Zm-70.15,31.21c-11.22,0-19.64-5.89-19.64-11.18s8.42-11.18,19.64-11.18,19.57,5.89,19.57,11.18-8.34,11.18-19.57,11.18Zm0-32.11c-16.23,0-29.43,9.37-29.43,20.93s13.2,20.93,29.43,20.93,29.43-9.37,29.43-20.93-13.2-20.93-29.43-20.93ZM26.01,111.15c-6.22,0-11.22-4.99-11.22-11.18s5.01-11.18,11.22-11.18,11.22,4.99,11.22,11.18-5.01,11.18-11.22,11.18Zm0-32.11c-11.6,0-21.01,9.37-21.01,20.93s9.4,20.93,21.01,21.01c11.6,0,21.01-9.37,21.01-20.93,.08-11.64-9.33-21.01-21.01-21.01Z"/><path class="c" d="M249.74,102.76v1.89c0,8.01-5.08,16.02-15.77,16.02-9.48,0-16.53-6.35-16.53-16.17s6.75-16.4,16.61-16.4c5.31,0,9.33,1.89,12.06,4.16l-3.19,3.85c-2.05-1.81-5.16-3.32-9.1-3.32-6.83,0-11.3,4.99-11.3,11.56s4.63,11.49,11.6,11.49,10.24-4.68,10.62-8.84h-9.86v-4.38h14.86v.15Z"/><path class="c" d="M258.16,119.99h-4.4v-31.21h4.4v31.21Z"/><path class="c" d="M285.08,109.71c0,6.35-4.85,10.96-11.3,10.96s-11.3-4.61-11.3-10.96,4.85-10.96,11.3-10.96,11.3,4.61,11.3,10.96Zm-17.97,0c0,4.08,2.73,6.73,6.67,6.73s6.67-2.64,6.67-6.73-2.73-6.73-6.67-6.73-6.67,2.64-6.67,6.73Z"/><path class="c" d="M293.81,116.96h-.07v3.02h-4.4v-31.21h4.4v13.68h.07c1.29-2.27,3.56-3.7,6.98-3.7,5.46,0,10.09,4.08,10.09,10.96s-4.63,10.96-10.09,10.96c-3.41,0-5.69-1.51-6.98-3.7Zm12.36-7.25c0-3.93-2.5-6.73-6.37-6.73s-6.37,2.8-6.37,6.73,2.5,6.73,6.37,6.73c3.87-.08,6.37-2.8,6.37-6.73Z"/><path class="c" d="M313.53,109.71c0-6.88,4.63-10.96,10.09-10.96,3.41,0,5.69,1.44,6.98,3.7h.07v-3.02h4.4v20.63h-4.4v-3.02h-.07c-1.29,2.27-3.56,3.7-6.98,3.7-5.46-.08-10.09-4.16-10.09-11.03Zm17.37,0c0-3.93-2.5-6.73-6.37-6.73s-6.37,2.8-6.37,6.73,2.5,6.73,6.37,6.73c3.87-.08,6.37-2.8,6.37-6.73Z"/><path class="c" d="M345,119.99h-4.4v-31.21h4.4v31.21Z"/></svg>