<?xml version="1.0" encoding="UTF-8"?><svg id="a" xmlns="http://www.w3.org/2000/svg" viewBox="0 0 350 200"><defs><style>.e{fill:#f7be00;}.f{fill:#150400;}</style></defs><g><path id="b" class="e" d="M215.71,166.64v6.31h1.13v-2.63h.16c.08,.13,1.72,2.63,1.72,2.63h1.38s-1.73-2.53-1.9-2.78c.84-.2,1.41-.8,1.41-1.68s-.56-1.85-2.1-1.85h-1.79Zm1.66,.92c.97,0,1.09,.48,1.09,.88,0,.6-.25,.99-1.48,.99h-.14v-1.88h.52Z"/><path id="c" class="e" d="M221.83,169.81c0,2.35-1.92,4.27-4.28,4.27s-4.28-1.92-4.28-4.27,1.91-4.28,4.28-4.28,4.28,1.92,4.28,4.28Zm-4.29-5.2c-2.86,0-5.19,2.35-5.19,5.2s2.33,5.19,5.19,5.19,5.2-2.33,5.2-5.19-2.32-5.2-5.2-5.2Z"/></g><g><g><path class="e" d="M174.8,175.39c-.16-.07-16.45-7.13-39.16-18.57-22.94-11.56-24.81-39.39-24.83-39.67V38.49l.24-.15c.06-.03,5.93-3.51,16.71-6.93,9.92-3.15,26.18-6.91,47.23-6.91s37.31,3.76,47.23,6.91c10.77,3.42,16.65,6.9,16.71,6.93l.24,.15V117.12c-.02,.31-1.89,28.14-24.83,39.7-22.7,11.44-38.99,18.5-39.15,18.57l-.2,.09-.2-.09Z"/><path class="f" d="M175,25c40.64,0,63.68,13.77,63.68,13.77V117.12s-1.6,27.69-24.56,39.26c-22.95,11.57-39.13,18.56-39.13,18.56,0,0-16.18-6.99-39.13-18.56-22.95-11.57-24.56-39.26-24.56-39.26V38.77s23.04-13.77,63.68-13.77m0-1c-21.12,0-37.43,3.77-47.39,6.93-10.83,3.44-16.57,6.84-16.81,6.98l-.49,.29V117.18c.02,.28,1.91,28.4,25.11,40.09,22.71,11.45,39.02,18.52,39.18,18.59l.4,.17,.4-.17c.16-.07,16.47-7.14,39.18-18.59,23.2-11.69,25.09-39.81,25.1-40.09V38.21l-.49-.29c-.24-.14-5.98-3.54-16.81-6.98-9.96-3.16-26.26-6.93-47.39-6.93h0Z"/></g><path class="f" d="M117.77,71.2s34.48-40.67,114.47-30.13V117.12s-.68,23.34-18.94,33.22c-18.26,9.88-38.25,18.93-38.25,18.93l-34.08-16.59s-23.2-9.6-23.2-37.53v-43.94Z"/><path id="d" class="e" d="M139.25,116.81c2.22,0,3.99-.48,5.18-1.31-.04-13.87-.03-27.83,.04-41.65,3.64-.04,7.3-.06,10.97-.08-.05,15.94-.05,32.1,0,48.07-4.21,2.86-9.85,4.37-16.52,4.32-10.76-.11-16.05-6.07-16.07-17.65v-34.43c3.55-.04,7.14-.09,10.74-.13-.05,11.66-.06,23.39-.05,35.1,0,3.11,.75,7.73,5.72,7.77Zm32.57,31.71c0-7.58,0-15.27,0-23.02,1.1,.33,2.72,.62,5,.62,12.29-.01,19.38-11.08,19.38-27.3,0-16.17-7.29-26.2-20.53-26.21-6.04,0-10.92,1.34-14.92,3.95-.06,23.99-.02,48.44,.1,71.93,3.67,.02,7.33,.02,10.99,.03Zm-.02-66.22c.89-.43,2.44-.79,3.93-.79,6.44,0,9.13,5.15,9.13,17.6,0,12.15-3.07,18.01-9.47,18.01-1.48,0-2.8-.37-3.6-.67,0-11.35,0-22.79,0-34.14Zm44.71,28.61c-.08-3.47-1.98-5.33-6.76-8.16-9.01-5.34-10.67-9.78-10.69-15.68-.06-8.95,7.5-14.12,14.61-14.26,5.95-.12,9.93,2.2,11.81,3.7,.01,3.17,.02,6.35,.02,9.53-2.23-2.36-5.83-4.53-9.61-4.6-3.07-.05-6.29,1.3-6.38,5.23-.09,4.01,3.14,5.6,7.15,8.03,9.01,5.43,10.65,10.24,10.47,16.63-.22,6.99-4.88,14.69-15.62,14.8-4.31,.04-8.57-1.29-12-3.32,.01-3.39,.02-6.79,.03-10.19,2.8,2.53,6.99,4.45,10.46,4.45,3.98,0,6.58-2.34,6.5-6.17Z"/></g></svg>