<?xml version="1.0" encoding="UTF-8"?><svg id="a" xmlns="http://www.w3.org/2000/svg" viewBox="0 0 350 200"><defs><style>.b{fill:#3b499f;}</style></defs><path class="b" d="M54.1,88.29c-1.3-9.77-8.39-17.64-23.77-17.64-13.92,0-24.12,5.96-24.12,17.81,0,21.27,31.99,15.47,31.99,23.86,0,2.59-3.03,4.06-7.61,4.06-1.73,0-3.72-.43-5.19-1.38-1.56-.95-2.59-2.42-3.03-4.41H5c.35,10.03,9.94,18.67,24.64,18.67s26.02-6.31,26.02-19.19c0-20.23-31.99-15.04-31.99-23.43,0-1.99,1.82-3.2,5.79-3.2,1.82,0,3.37,.26,4.67,1.04,1.3,.69,2.33,1.82,2.59,3.8"/><path class="b" d="M162.08,96.33v31.55h-12.36v-4.58c-3.98,4.15-9.34,6.05-15.13,6.05-15.39,0-26.8-13.66-26.8-28.35,0-21.09,14.18-30.26,27.66-30.26,14.26,0,23.34,7.61,25.68,20.32h-16.34c-.43-3.2-4.75-6.31-8.82-6.31-11.67,0-10.81,12.88-10.81,16.68,0,5.19,1.47,14,10.89,14,3.29,0,8.21-2.25,8.73-6.66h-6.14v-12.28h.09"/><polygon class="b" points="292.09 72.03 279.3 127.88 259.42 127.88 254.06 98.49 248.7 127.88 228.73 127.88 215.93 72.03 232.36 72.03 238.93 106.61 245.67 72.03 262.44 72.03 269.19 106.61 275.76 72.03 292.09 72.03"/><path class="b" d="M180.4,72.03l-17.55,55.85h16.34l3.2-10.29h18.24l3.28,10.29h16.34l-17.55-55.85h-22.3Zm5.79,33.28l5.36-19.36,5.36,19.36h-10.72Z"/><path class="b" d="M71.05,72.03l-17.55,55.85h16.34l3.2-10.29h18.24l3.28,10.29h16.25l-17.46-55.85h-22.3Zm5.71,33.28l5.36-19.36,5.36,19.36h-10.72Z"/><path class="b" d="M327.54,72.03h-22.3l-17.55,55.85h16.25l3.29-10.29h18.24l3.2,10.29h16.34l-17.46-55.85Zm-16.51,33.28l5.36-19.36,5.36,19.36h-10.72Z"/></svg>