<?xml version="1.0" encoding="UTF-8"?><svg id="a" xmlns="http://www.w3.org/2000/svg" viewBox="0 0 350 200"><defs><style>.b{fill:#f39800;}.c{fill:#1d50a2;}</style></defs><polygon class="b" points="62 74.3 5 74.3 9.76 79.92 60.5 79.92 62 74.3"/><polygon class="b" points="59.6 83.28 12.62 83.28 17.39 88.9 58.1 88.9 59.6 83.28"/><polygon class="b" points="49.97 119.21 43.13 119.21 48.32 125.32 49.97 119.21"/><polygon class="b" points="345 79.92 345 74.3 193.45 74.3 191.52 79.92 345 79.92"/><polygon class="b" points="54.78 101.25 27.88 101.25 32.64 106.86 53.28 106.86 54.78 101.25"/><polygon class="b" points="57.19 92.27 20.25 92.27 25.02 97.88 55.69 97.88 57.19 92.27"/><polygon class="b" points="52.38 110.23 35.5 110.23 40.27 115.84 50.87 115.84 52.38 110.23"/><polygon class="b" points="185.35 97.88 345 97.88 345 92.27 187.28 92.27 185.35 97.88"/><polygon class="b" points="188.44 88.9 345 88.9 345 83.28 190.37 83.28 188.44 88.9"/><path class="c" d="M130.47,74.3l-3.32,6.17h16.27l-.6,2.24h-16.88l-3.62,6.74h18.69l-.6,2.24h-19.3l-2.08,3.87,.09-21.27h-16.72l-1.66,6.17h16.21v2.24h-16.81l-1.81,6.74h18.58l-.02,2.24h-19.17l-1.8,6.74h10.66l-.6,2.25h-10.66l-1.8,6.74h10.67l-.6,2.25h-10.66l-1.81,6.74h10.66l-.6,2.25h-10.66l-1.65,6.18h12.91l7.72-28.82-.09,2.44h15.53l-1.14,2.25h-14.48l-.27,6.74h11.32l-1.14,2.25h-10.26l-.27,6.74h7.11l-1.14,2.25h-6.06l-.24,6.18h5.52c3.4-6.7,11.55-22.82,14.84-29.31l-.81,2.93h10.67l-.6,2.25h-10.67l-1.81,6.74h10.67l-.6,2.25h-10.66l-1.8,6.74h10.66c-.2,.75-.43,1.6-.6,2.25h-10.66l-1.66,6.18h12.91l13.54-50.52h-16.85Z"/><polygon class="c" points="179.75 89.46 182.16 80.48 174.96 74.3 160.51 74.3 151.29 80.48 178.79 80.48 179.7 81.26 179.31 82.72 150.68 82.72 148.88 89.46 160.1 89.46 159.5 91.7 148.27 91.7 146.47 98.44 173.09 98.44 175.18 100.24 175.06 100.68 146.49 100.68 151.72 105.18 162.63 105.18 162.03 107.42 173.25 107.42 172.65 109.67 161.42 109.67 160.67 112.47 155.62 112.47 156.4 109.67 143.49 109.67 141.66 116.4 170.84 116.4 170.49 117.72 169.11 118.65 141.28 118.65 148.25 124.82 163.25 124.82 172.49 118.64 177.63 99.45 170.58 93.39 161.3 93.39 163.1 86.65 167.59 86.65 166.84 89.46 179.75 89.46"/><path class="c" d="M92.23,87.23c.78-2.95,2.53-9.45,3.45-12.93h-25.82l-1.66,6.17h23.58c-.21,.77-.41,1.53-.6,2.24h-23.58l-1.8,6.74h11.79l-.6,2.24h-11.79l-1.81,6.74h23.57c-.19,.73-.39,1.48-.6,2.25h-23.58l-1.8,6.74h11.78l-.6,2.25h-11.79l-1.8,6.74h23.57c-.2,.75-.4,1.5-.6,2.25h-23.58l-1.66,6.18h25.82c1.18-4.4,2.42-9.03,3.46-12.92h-11.79l1.66-6.17h11.79c1.45-5.41,2.61-9.75,3.31-12.33h-11.79l1.66-6.18h11.79Z"/><path class="c" d="M196.98,125.07l1.43-5.34h-7.34l.48-1.78h17.34l-.48,1.78h-7.34l-1.43,5.34h-2.66Zm9.61-12.03c-.14,.69-.38,1.32-.72,1.9-.34,.58-.78,1.08-1.3,1.5-.52,.42-1.13,.74-1.83,.97-.7,.23-1.46,.35-2.29,.35s-1.55-.12-2.14-.35c-.6-.23-1.08-.56-1.44-.97-.36-.42-.59-.92-.71-1.5-.11-.58-.1-1.21,.04-1.9,.14-.68,.38-1.31,.72-1.89,.34-.57,.78-1.07,1.31-1.49,.53-.42,1.14-.75,1.83-.99,.69-.24,1.45-.36,2.29-.36s1.55,.12,2.15,.36c.6,.24,1.08,.57,1.43,.99,.35,.42,.59,.92,.7,1.49,.11,.57,.1,1.2-.04,1.89m-2.29,0c.08-.38,.07-.72,0-1.02-.08-.3-.23-.56-.44-.79-.21-.22-.48-.39-.82-.51-.34-.12-.71-.18-1.13-.18-.89,0-1.64,.23-2.24,.68s-.98,1.06-1.13,1.81c-.15,.77-.02,1.38,.4,1.85,.42,.46,1.07,.69,1.96,.69,.42,0,.82-.06,1.21-.18,.38-.12,.72-.29,1.03-.51,.3-.22,.55-.49,.76-.81,.21-.31,.35-.66,.42-1.04"/><path class="c" d="M218.12,111.1h3.17l-.48,1.78h-3.17c-.42,1.61-.54,3-.35,4.17,.18,1.17,.71,2.18,1.6,3.01l-1.77,1.26c-.23-.2-.45-.44-.67-.72-.22-.28-.42-.59-.61-.93-.19-.33-.34-.68-.45-1.03-.11-.35-.18-.69-.18-1.01-.19,.3-.45,.63-.77,.99-.33,.37-.7,.73-1.11,1.1-.42,.37-.86,.72-1.32,1.06-.47,.33-.93,.62-1.4,.85l-1.28-1.47c.77-.47,1.46-.96,2.07-1.47,.61-.51,1.14-1.05,1.6-1.63,.46-.58,.85-1.21,1.19-1.9,.33-.69,.62-1.45,.86-2.29h-3.15l.48-1.78h3.15l.32-1.21c.02-.09,.04-.19,.05-.31,.01-.12,.01-.23,0-.35,0-.12-.04-.23-.08-.33-.05-.11-.12-.19-.22-.25h2.1c.44,0,.71,.12,.79,.36,.08,.24,.08,.52,0,.82l-.34,1.26Zm.51,3.75h2.76l1.36-5.08c.05-.2,.08-.43,.08-.71,0-.27-.1-.48-.29-.61h1.83c.43,0,.71,.1,.84,.3,.13,.2,.14,.48,.04,.85l-4,14.93h-2.46l2.12-7.9h-2.76l.48-1.78Zm3.59,10.02l4.15-15.51c.05-.18,.06-.4,.02-.65-.03-.25-.15-.44-.36-.57h1.82c.9,0,1.24,.42,1.01,1.26l-4.15,15.47h-2.5Z"/><path class="c" d="M238.17,116.74l-.71,2.65h3.07c.64,0,1.06,.14,1.26,.43,.19,.28,.21,.7,.06,1.26l-1.2,4.47h-2.64l1.03-3.82c.06-.22,.05-.37-.03-.44-.08-.07-.24-.11-.48-.11h-9.28l.48-1.78h5.08l.71-2.65h-7.34l.48-1.78h12.18l.97-3.62c.06-.22,.05-.37-.03-.45-.08-.07-.24-.11-.48-.11h-8.99l.48-1.78h10.55c.64,0,1.06,.14,1.26,.43,.19,.28,.21,.7,.07,1.26l-1.14,4.27h2.5l-.48,1.78h-7.34Z"/><path class="c" d="M261.36,116.74l-.71,2.65h3.07c.65,0,1.07,.14,1.26,.43,.19,.28,.21,.7,.07,1.26l-1.2,4.47h-2.64l1.02-3.82c.06-.22,.05-.37-.03-.44s-.24-.11-.48-.11h-9.28l.48-1.78h5.08l.71-2.65h-7.34l.48-1.78h12.18l.97-3.62c.06-.22,.05-.37-.03-.45-.08-.07-.24-.11-.48-.11h-8.99l.48-1.78h10.55c.64,0,1.07,.14,1.26,.43,.19,.28,.21,.7,.06,1.26l-1.14,4.27h2.5l-.48,1.78h-7.34Z"/><path class="c" d="M272.12,109.6h8.23l-.48,1.78h-2.68l-.1,.37c-.45,1.68-.6,3.13-.44,4.34,.16,1.21,.7,2.24,1.62,3.08l-1.77,1.26c-.23-.2-.45-.44-.67-.72-.22-.29-.42-.59-.61-.93-.19-.33-.34-.68-.45-1.03-.11-.35-.18-.69-.18-1.01-.19,.3-.44,.63-.77,.99-.33,.36-.7,.73-1.11,1.1-.41,.37-.86,.72-1.32,1.06-.47,.33-.93,.62-1.4,.85l-1.28-1.47c.82-.47,1.54-.97,2.16-1.48,.61-.52,1.15-1.08,1.61-1.69,.46-.61,.85-1.27,1.17-1.98,.32-.72,.6-1.51,.83-2.38l.1-.37h-2.93l.48-1.78Zm6.08,4.12h2.7l1.06-3.95c.05-.2,.08-.43,.08-.71s-.1-.48-.29-.61h1.84c.43,0,.71,.1,.84,.3,.13,.2,.14,.48,.05,.85l-4,14.93h-2.46l2.42-9.03h-2.7l.48-1.78Zm3.53,11.15l4.16-15.51c.05-.18,.06-.4,.02-.65-.04-.25-.15-.44-.36-.57h1.82c.91,0,1.26,.42,1.03,1.26l-4.15,15.47h-2.52Z"/><path class="c" d="M287.11,118.76l.46-1.71h17.34l-.46,1.71h-17.34Zm2.01,1.39h10.69c.64,0,1.06,.14,1.26,.43,.19,.28,.21,.7,.06,1.26l-.99,3.71h-2.66l.85-3.17c.06-.22,.05-.37-.03-.45-.08-.07-.24-.11-.49-.11h-9.14l.45-1.67Zm15.11-9.79h-9.66l-.26,.97h9.52l-.45,1.67h-9.52l-.13,.5c-.06,.22-.05,.37,.03,.44,.08,.07,.24,.11,.48,.11h9.13l-.45,1.69h-10.65c-.52,0-.92-.15-1.18-.44-.26-.3-.31-.76-.14-1.39l.94-3.53c.21-.79,.11-1.37-.32-1.74h13.11l-.46,1.72Z"/><path class="c" d="M305.44,118.09l.48-1.78h7.34l.56-2.1h2.66l-.56,2.1h7.34l-.48,1.78h-17.34Zm2.67,3.79c.11-.53,.31-1.03,.63-1.49,.31-.46,.72-.87,1.21-1.21,.5-.35,1.07-.62,1.72-.82,.65-.2,1.36-.3,2.13-.3s1.44,.1,2.01,.3c.56,.2,1.02,.47,1.37,.82,.35,.35,.59,.75,.72,1.21,.13,.46,.14,.96,.03,1.49-.11,.53-.32,1.03-.63,1.5-.31,.47-.72,.87-1.2,1.21-.49,.34-1.05,.61-1.69,.81-.64,.2-1.35,.3-2.13,.3s-1.45-.1-2.01-.3c-.57-.2-1.03-.47-1.39-.81-.36-.34-.6-.74-.73-1.21-.13-.47-.14-.97-.03-1.5m8.6-13.34c.47,0,.78,.08,.94,.25,.16,.17,.2,.39,.13,.66l-.06,.24c-.14,.51-.08,.97,.18,1.4,.25,.43,.63,.81,1.13,1.14,.5,.33,1.07,.62,1.71,.85,.64,.23,1.29,.41,1.93,.52l-1.12,1.54c-.62-.09-1.24-.23-1.85-.43-.61-.2-1.17-.43-1.69-.7-.51-.27-.95-.58-1.32-.92-.37-.34-.62-.69-.77-1.05-.32,.36-.77,.71-1.32,1.06-.56,.35-1.18,.66-1.88,.95-.7,.28-1.44,.53-2.22,.72-.79,.2-1.56,.33-2.32,.41l-.3-1.72c.79-.1,1.59-.26,2.38-.49,.79-.23,1.52-.51,2.17-.83,.65-.33,1.21-.7,1.67-1.11,.46-.41,.75-.86,.88-1.33l.05-.2c.05-.17,.06-.34,.05-.5,0-.16-.1-.31-.26-.44h1.9Zm-6.46,13.34c-.11,.54,.06,.99,.5,1.33,.44,.34,1.09,.51,1.94,.51s1.57-.17,2.13-.51c.55-.34,.89-.78,1-1.33,.11-.57-.04-1.02-.46-1.35-.42-.33-1.06-.49-1.92-.49s-1.56,.16-2.14,.49c-.57,.33-.92,.77-1.03,1.35"/></svg>