<?xml version="1.0" encoding="UTF-8"?><svg id="a" xmlns="http://www.w3.org/2000/svg" viewBox="0 0 350 200"><defs><style>.b{fill:#004c82;}.c{fill:#ea4156;}</style></defs><polygon class="b" points="17.06 71.9 17.49 71.9 18.2 72.04 19.05 72.18 21.32 72.75 24.44 73.32 26.15 73.75 27.99 74.17 29.98 74.46 31.96 75.02 34.09 75.31 36.22 75.87 43.03 77.15 45.16 77.72 47.43 78.14 49.42 78.57 51.55 79 53.53 79.42 55.52 79.71 57.23 80.13 58.93 80.42 60.35 80.84 61.62 81.13 62.76 81.27 63.75 81.41 64.46 81.55 64.89 81.69 65.17 81.69 67.02 82.12 68.72 82.4 70.14 82.83 71.28 83.11 72.41 83.54 73.26 83.82 74.4 84.39 74.82 84.68 75.53 85.38 75.53 85.53 75.68 85.67 75.68 85.81 81.78 85.81 82.35 85.95 82.91 85.95 83.34 86.09 83.76 86.09 84.19 86.24 85.33 86.8 85.47 87.09 86.46 88.65 86.75 90.49 86.46 92.76 85.75 94.89 84.9 97.02 84.05 98.72 83.34 99.86 83.06 100.29 82.77 100.43 82.06 100.71 81.07 101.14 79.65 101.7 78.09 102.27 76.1 103.12 73.97 103.97 71.56 104.82 68.86 105.96 66.02 106.96 63.19 108.09 56.94 110.65 53.68 111.92 50.41 113.06 47.15 114.47 43.75 115.75 40.48 116.89 37.36 118.31 34.09 119.44 31.11 120.58 25.44 122.85 22.88 123.84 20.47 124.7 18.34 125.55 16.5 126.26 14.93 126.97 13.66 127.39 12.66 127.82 12.1 127.96 11.95 128.1 85.33 128.1 97.25 71.62 17.06 71.62 17.06 71.9"/><polygon class="b" points="71.99 90.21 71.56 90.35 68.72 90.92 68.01 90.92 67.44 91.06 66.88 91.06 66.02 91.2 65.6 91.34 65.32 91.48 65.17 91.77 65.17 92.05 65.46 92.34 66.02 92.34 66.59 92.48 68.01 92.48 68.86 92.34 69.71 92.34 71.7 92.05 72.7 92.05 73.83 91.91 74.82 91.77 75.68 91.63 76.67 91.48 80.5 91.48 80.93 91.63 81.21 91.77 81.49 92.2 81.49 92.76 81.35 93.33 81.21 94.04 80.93 94.89 80.5 95.89 80.22 96.88 80.07 97.45 80.36 97.73 80.64 97.59 81.21 97.02 81.49 96.59 81.92 95.89 82.35 95.04 82.77 94.04 83.2 93.19 83.48 92.34 83.62 91.63 83.62 90.78 83.34 90.07 82.91 89.64 82.35 89.22 81.64 88.93 80.78 88.79 79.79 88.65 73.83 88.65 73.69 88.79 73.55 88.79 73.26 88.93 72.98 89.5 72.7 89.64 72.41 89.93 71.99 90.21"/><polygon class="b" points="14.37 84.68 5 128.1 5.43 127.96 6.28 127.39 7.7 126.82 9.54 125.83 11.67 124.84 14.08 123.56 16.92 122.28 19.62 120.86 22.46 119.58 25.15 118.17 27.85 116.89 30.4 115.61 32.53 114.47 34.38 113.62 35.8 112.91 36.79 112.49 38.21 111.78 39.49 111.07 41.05 110.36 42.61 109.51 44.03 108.8 45.73 108.09 47.29 107.24 48.99 106.53 50.7 105.67 59.21 102.13 63.05 100.85 63.61 100.71 64.18 100.43 64.89 100.29 67.44 99.43 70.42 98.58 71.42 98.44 74.4 97.59 76.1 97.31 76.67 97.16 77.09 97.02 77.52 97.02 77.95 96.88 78.23 96.59 78.37 96.59 78.37 96.45 78.09 95.89 77.66 95.74 77.09 95.6 76.53 95.6 75.68 95.46 74.82 95.46 73.83 95.6 72.13 95.74 70.28 96.03 68.3 96.45 66.17 96.88 64.04 97.45 61.77 98.16 59.64 98.86 57.37 99.57 55.24 100.43 53.11 101.14 51.12 101.85 49.28 102.56 47.57 103.41 46.16 103.97 44.88 104.54 43.89 105.11 38.49 88.36 72.84 88.36 72.98 87.65 72.41 86.94 71.56 86.52 70.28 86.09 68.86 85.67 65.17 85.1 59.21 84.68 14.37 84.68"/><polygon class="c" points="344.65 101.18 104.2 101.18 104.55 97.56 345 97.56 344.65 101.18"/><path d="M115.13,93.19l-1.84-.14-1.85-.43-1.42-.43-1.28-.85-.85-.99-.57-1.28-.14-1.42,.14-1.7,.71-3.12,.57-2.84,.57-2.41,.42-1.98,.29-1.7,.28-1.28,.14-.71,.14-.29h4.68l-.14,.57-.28,1.42-.57,2.13-.42,2.41-.57,2.41-.71,3.55-.14,.42-.14,1.14v1.99l.28,.71,.57,.57,.71,.43,.99,.28,1.14,.14,1.28-.14,.99-.14,.99-.43,.71-.71,.57-.71,.57-.85,.85-2.27,.14-1.13,.43-1.7,.43-2.13,.42-2.27,.57-2.13,.29-1.84,.28-1.28,.14-.42h4.68l-.85,4.12-.42,2.13-.28,.71v.28l-.14,.85-.42,2.13-.99,4.12-.14,.85-.43,.85-.29,.71-.42,.71-.57,.71-1.14,1.13-.71,.43-.85,.43-.71,.42-.85,.28-.85,.14-.85,.28-1.98,.29h-1.14Zm218.27-18.17h-6.67l-1.13,.28-.85,.57-.14,.28-.14,.43v.57l.14,.57,.42,.57,.43,.71,1.28,1.28,.85,.57,.71,.57,.85,.71,1.42,1.42,.57,.71,.85,1.7,.14,.85-.14,.99-.28,.99-.43,.99-.71,.85-.99,.71-1.13,.57-1.42,.43-1.84,.28-1.99,.14h-7.24l.85-3.41h7.66l.71-.14,.57-.14,.43-.28,.43-.57,.28-.57-.14-1.14-.85-1.14-1.42-1.14-1.42-1.28-1.56-1.42-1.28-1.56-.85-1.56-.14-1.84,.28-.99,.57-1.14,.57-.85,.99-.71,1.28-.57,1.28-.42,1.7-.29h8.23l-.71,3.41h0Zm-16.46,0h-10.64l-1.28,5.54h9.37l-.71,2.98h-9.37l-1.14,5.82h10.64l-.71,3.41h-15.33l4.54-21.15h15.33l-.71,3.41h0Zm-18.45,0h-6.53l-3.83,17.74h-4.68l3.83-17.74h-6.67l.85-3.41h17.74l-.71,3.41h0Zm-32.64,17.74l1.85-3.4h6.67l-1.85-13.48-9.37,16.89h-4.68l12.21-21.15h5.53l3.27,21.15h-13.63Zm-.85-17.74h-6.53l-3.83,17.74h-4.68l3.83-17.74h-6.67l.85-3.41h17.74l-.71,3.41h0Zm-20.29,0h-6.53l-.71,.14-.57,.14-.43,.29-.57,.57v.99l.14,.57,.28,.57,.57,.71,1.28,1.28,.71,.57,.85,.57,2.13,2.13,.57,.71,.57,.85,.29,.85,.14,.85v.99l-.28,1-.42,.99-.85,.85-.85,.71-1.28,.57-1.42,.43-1.7,.28-2.13,.14h-7.1l.71-3.4h7.8l.71-.14,.57-.14,.42-.28,.43-.57,.14-.57-.14-1.14-.85-1.14-1.28-1.14-1.42-1.28-1.56-1.42-1.28-1.56-.85-1.56-.14-1.84,.29-.99,.42-1.14,.71-.85,.99-.71,1.14-.57,1.42-.42,1.7-.29h8.23l-.85,3.41h0Zm-42.86,7.09l-2.13,10.64h9.51l1.14-.14h1.14l1.99-.57,1.13-.43,1-.57,1.7-1.14,1.7-1.7,1.42-1.99,.57-1.14,.42-1.13,.29-1.28,.14-.57,.14-.85,.28-1.99-.14-1.84-.43-1.56-.71-1.42-1.13-1.28-1.42-.85-1.84-.57-2.13-.14h-10.36l-2.27,10.5h0Zm15.47,0l-.14,.71-.42,.85-.28,.71-.28,.85-.43,.56-.56,.71-1.14,1.14-1.42,.85-.71,.28-.85,.28-1.7,.28h-4.26l1.42-7.24,1.56-7.09h6.1l1.13,.43,.86,.57,.71,.85,.43,.85,.28,1.13v2.27l-.28,.85v.14h0Zm-17.31-7.09h-10.5l-1.27,5.54h9.22l-.57,2.98h-9.36l-1.14,5.82h10.5l-.56,3.41h-15.33l4.54-21.15h15.19l-.71,3.41h0Zm-18.31,0h-6.67l-3.83,17.74h-4.54l3.83-17.74h-6.67l.71-3.41h17.74l-.57,3.41h0Zm-24.83,17.74h-4.54l4.4-21.15h4.68l-4.54,21.15h0Zm-9.08,0h-5.82l-5.25-15.75h-.14l-3.26,15.75h-4.11l4.54-21.15h5.96l5.11,15.9,3.26-15.9h4.26l-4.54,21.15h0Z"/><path d="M108.89,120.01h-.57l-.28-.14h-.85l-.28-.14h-.28l-.28-2.98h1.14l.14,.14h.85l1.13-.14,1.7-.57,.57-.57,.85-1.14,.28-.57v-.57l.14-.71v-.71l-.14-.57-.28-.42-.85-.57h-.57l-.56-.14h-3.83l-3.83,17.74h-4.68l4.54-21.14h10.08l1.56,.14,1.14,.57,.99,.71,.57,.99,.28,.99,.14,1.13v1.14l-.14,.99-.43,1.42-.71,1.28-.85,1.13-1.13,1-1.14,.71-2.84,.85-1.56,.14h0Zm233.59-9.79h-10.78l-1.14,5.53h9.37l-.71,3.12h-9.36l-1.14,5.82h10.64l-.71,3.26h-15.33l4.54-21.15h15.33l-.71,3.41h0Zm-18.87,.28l-.57-.14h-.43l-1.13-.28-.71-.14h-.71l-.57-.14h-.85l-1.56,.14-1.42,.42-1.42,.57-1.28,.99-.99,.99-.99,1.28-.57,1.56-.57,1.7-.29,1.7,.14,1.56,.42,1.28,.57,.99,.85,.85,1.14,.71,1.28,.43,1.42,.14h.85l.85-.14h.71l1.42-.28h.57l.71-.14,.57-.14-1.14,3.54-.57,.14h-.71l-.57,.14h-.71l-.57,.14h-3.27l-2.27-.28-.99-.28-.99-.43-.85-.43-.85-.57-.71-.57-.71-.71-.42-.85-.42-.99-.43-.85-.14-1.13v-1.14l.14-1.28,.14-1.42,.43-1.28,.42-1.42,1.14-2.27,.71-.99,1.71-1.7,.99-.71,1.99-1.13,2.27-.85,1.14-.28,1.13-.14,1.28-.14h2.98l.57,.14h.57l.57,.14h.57l.57,.14-.42,3.55h0Zm-23.42,17.45h-4.68l4.54-21.14h4.68l-4.54,21.14h0Zm-15.04,0h-5.53l-3.12-21.14h4.68l2.13,17.03,9.37-17.03h4.54l-12.06,21.14h0Zm-17.17-9.08l3.41,9.08h-5.11l-3.83-11.49h2.7l.85-.14,.85-.28,.71-.43,.57-.42,.57-.57,.28-.71,.29-.85,.14-.57v-.57l-.28-.85-.28-.28-.57-.28-1.42-.28h-4.26l-3.83,17.74h-4.68l4.54-21.14h9.79l1.41,.14,1.28,.28,.99,.43,.71,.57,.57,.71,.43,1,.14,1.13v1.13l-.14,1.42-.43,1.28-.57,1.14-.71,.85-.85,.85-1.13,.57-.99,.42-1.14,.14h0Zm-13.48-8.66h-10.64l-1.14,5.53h9.22l-.57,3.12h-9.36l-1.14,5.82h10.64l-.71,3.26h-15.47l4.54-21.15h15.33l-.71,3.41h0Zm-19.3,0h-5.96l-1.42,.28-.57,.14-.28,.28-.43,.28-.28,.57v.71l.14,.57,.29,.57,.57,.57,.57,.71,.71,.57,.71,.71,.85,.57,.71,.71,.85,.57,.57,.85,.57,.71,.57,.85,.28,.71,.14,.99v.85l-.28,1.14-.43,.85-1.7,1.7-1.14,.57-1.56,.43-1.7,.28h-9.23l.71-3.26h7.81l.71-.14,.57-.28,.43-.28,.42-.42,.28-.57-.28-1.14-.85-1.13-1.28-1.28-1.42-1.28-1.56-1.28-1.28-1.56-.85-1.7-.14-1.7,.28-1.14,.43-.99,.71-.85,.99-.71,1.13-.57,1.42-.43,1.7-.28,1.98-.14h6.24l-.71,3.41h0Zm-25.26,17.74h-14.33l4.4-21.14h4.82l-3.83,17.88h9.65l-.71,3.26h0Zm-30.37,0l1.84-3.26h6.67l-1.99-13.63-9.22,16.89h-4.68l12.07-21.14h5.67l3.26,21.14h-13.62Zm-.85-17.74h-6.67l-3.83,17.74h-4.68l3.83-17.74h-6.53l.71-3.41h17.74l-.56,3.41h0Zm-20.29,0h-5.96l-1.42,.28-.43,.14-.43,.28-.56,.57-.14,.28v.71l.14,.57,.85,1.14,.57,.71,.71,.57,.71,.71,.85,.57,.85,.71,.71,.57,.57,.85,.71,.71,.42,.85,.29,.71,.28,.99-.14,.85-.28,1.14-.43,.85-.71,.85-.85,.85-1.28,.57-1.56,.43-1.7,.28h-9.08l.57-3.26h7.95l.57-.14,1.14-.57,.28-.42,.28-.57-.14-1.14-.85-1.13-1.28-1.28-1.56-1.28-1.42-1.28-1.28-1.56-.85-1.7-.29-1.7,.29-1.14,.57-.99,.71-.85,.85-.71,1.14-.57,1.56-.43,1.7-.28,1.84-.14h6.25l-.71,3.41h0Zm-39.45,7.24l-.29,2.27,.43,2.98,.85,1.7,.57,.85,1.28,1.28,.85,.57,.85,.43,.99,.42,1.14,.29,1.14,.14h2.41l2.27-.28,1.13-.28,1.14-.43,.99-.43,.85-.57,.99-.57,.85-.71,.71-.85,.85-.85,.57-.99,1.14-2.27,.43-1.28,.28-1.42,.29-1.13v-2.13l-.14-1.14-.14-.99-.85-1.7-1.13-1.42-.71-.56-.85-.57-.85-.42-1.14-.43-.99-.29-1.13-.14h-2.41l-2.27,.28-1.13,.28-1.14,.43-.99,.42-.85,.57-.99,.71-.85,.57-.85,.85-.71,.99-.71,.85-.57,1.13-.43,1.14-.43,1.42-.42,1.28h0Zm17.74,0l-.43,1.7-.71,1.56-.71,1.28-.99,.99-1.14,.85-1.28,.71-1.28,.43-1.56,.14-1.56-.14-1.14-.57-.99-.71-.71-.99-.43-.99-.28-1.42v-1.42l.28-1.42,.43-1.7,.71-1.56,.71-1.28,.99-.99,1.13-.99,1.28-.57,1.28-.42,1.56-.14,1.42,.28,1.28,.28,.99,.85,.71,.85,.43,1.14,.28,1.27v1.42l-.28,1.56h0Z"/></svg>