<?xml version="1.0" encoding="UTF-8"?><svg id="a" xmlns="http://www.w3.org/2000/svg" viewBox="0 0 350 200"><defs><style>.b{fill:#00aae8;}.c{fill:#78787c;}</style></defs><path class="c" d="M192.67,110.56c-1.29,0-2.34-.1-3.15-.31-.69-.18-1.23-.45-1.61-.82-.38-.36-.63-.82-.79-1.39-.18-.68-.28-1.56-.28-2.61v-26.99h-11.33v27.34c0,2.63,.26,4.89,.77,6.71,.55,1.95,1.5,3.56,2.84,4.78,1.32,1.21,3.07,2.09,5.21,2.62,2.03,.51,4.58,.77,7.58,.77h30.96v-10.11h-30.2Z"/><rect class="c" x="225.27" y="78.45" width="11.39" height="42.22"/><path class="c" d="M309.4,91.59c.12-.53,.32-.93,.63-1.22,.32-.31,.79-.55,1.39-.7,.71-.18,1.66-.28,2.82-.28h30.76v-10.05h-30.76c-2.99,0-5.55,.26-7.58,.77-2.14,.54-3.89,1.42-5.21,2.62-1.34,1.23-2.29,2.85-2.84,4.82-.51,1.85-.77,4.09-.77,6.68v12.45c0,2.63,.26,4.89,.77,6.71,.55,1.95,1.5,3.56,2.84,4.78,1.32,1.21,3.07,2.09,5.2,2.62,2.03,.51,4.58,.77,7.58,.77h30.76v-10.05h-30.76c-1.19,0-2.17-.08-2.91-.24-.58-.12-1.03-.33-1.31-.61s-.5-.7-.62-1.24c-.15-.68-.23-1.59-.23-2.69v-1.52h35.6v-9.59h-35.6v-1.4c0-1.06,.08-1.95,.23-2.63Z"/><path class="b" d="M57.65,86.14c-.6-1.78-1.64-3.26-3.1-4.4-1.43-1.12-3.31-1.92-5.6-2.4-2.16-.45-4.86-.68-8.03-.68H5v9.77H40.67c2.91,0,4.04,.52,4.45,.83,.65,.49,1,1.62,1,3.26v-.63c0,1.57-.33,2.67-.94,3.1-.4,.29-1.51,.77-4.38,.77H5v25.12h12.38v-15.8h23.54c3.24,0,5.96-.19,8.11-.55,2.28-.39,4.16-1.11,5.58-2.13,1.46-1.05,2.49-2.45,3.08-4.18,.54-1.6,.82-3.62,.82-6v-.04c0-2.34-.29-4.38-.85-6.05Z"/><path class="b" d="M172.26,86.13c-.6-1.78-1.64-3.26-3.1-4.4-1.43-1.12-3.31-1.92-5.6-2.4-2.16-.45-4.87-.68-8.03-.68h-35.92v9.77h35.67c2.91,0,4.04,.52,4.45,.83,.65,.49,1,1.62,1,3.26v-.63c0,1.57-.33,2.67-.94,3.1-.4,.29-1.51,.77-4.39,.77h-35.8v25.12h12.38v-15.8h23.54c3.24,0,5.96-.19,8.11-.55,2.28-.39,4.16-1.11,5.58-2.13,1.46-1.05,2.49-2.45,3.08-4.18,.54-1.6,.82-3.62,.82-6v-.04c0-2.34-.29-4.38-.85-6.05Z"/><path class="b" d="M75.98,88.12l14.61,24.78c.56,1.25,1.2,2.32,1.93,3.25,.76,.97,1.69,1.82,2.76,2.52,1.11,.73,2.43,1.29,3.93,1.66,1.46,.36,3.17,.55,5.06,.55,4.29,0,7.58-.91,9.77-2.69,2.11-1.72,3.18-3.99,3.18-6.76v-32.77h-11.64v32.48c0,.44-.15,.78-.44,1.02-.18,.14-.46,.29-1.16,.29-.48,0-.84-.07-1.06-.2-.35-.22-.63-.49-.83-.79l-14.64-24.84c-1.14-2.43-2.69-4.33-4.64-5.72-2.08-1.48-5.1-2.23-8.96-2.23-4.35,0-7.65,.91-9.81,2.7-2.08,1.72-3.13,3.97-3.13,6.7v32.82h11.57v-32.48c0-.49,.15-.86,.46-1.09,.09-.07,.37-.28,1.22-.28,.63,0,1.28,.13,1.84,1.09Z"/><path class="c" d="M254.14,88.12l14.61,24.78c.56,1.25,1.2,2.32,1.93,3.25,.76,.97,1.69,1.82,2.76,2.52,1.11,.73,2.43,1.29,3.93,1.66,1.46,.36,3.17,.55,5.06,.55,4.29,0,7.58-.91,9.77-2.69,2.11-1.72,3.18-3.99,3.18-6.76v-32.77h-11.64v32.48c0,.44-.15,.78-.44,1.02-.18,.14-.46,.29-1.16,.29-.48,0-.84-.07-1.06-.2-.35-.22-.63-.49-.83-.79l-14.64-24.84c-1.14-2.43-2.69-4.33-4.64-5.72-2.08-1.48-5.1-2.23-8.96-2.23-4.35,0-7.65,.91-9.81,2.7-2.08,1.72-3.13,3.97-3.13,6.7v32.82h11.57v-32.48c0-.49,.15-.86,.46-1.09,.09-.07,.37-.28,1.22-.28,.63,0,1.28,.13,1.84,1.09Z"/></svg>