<?xml version="1.0" encoding="UTF-8"?><svg id="a" xmlns="http://www.w3.org/2000/svg" viewBox="0 0 350 200"><defs><style>.b{fill:#fccf00;}</style></defs><path class="b" d="M5,100c0-28.11,25.84-42.33,58.54-42.33s58.2,14.22,58.2,42.33-25.56,42.05-58.2,42.33c-32.7,.34-58.54-14.22-58.54-42.33"/><path d="M113.06,90.82l-1.19-4.93-.28-.11-20.91,7.99H55.77v-.34s.57-.62,1.13-1.81c.68-1.87,1.08-4.02,1.08-6.57v-13.32h-1.47l-8.5,8.84h-13.43l-8.5-8.84h-1.47v13.32c0,2.72,.45,5.04,1.25,6.97,1.36,3,3.06,3.85,3.06,3.85v.34h-1.7l-4.53-4.7h-1.47v7.42c0,2.32,.57,4.14,1.47,5.55,.96,1.42,2.27,2.38,3.85,3,.91,.34,1.93,.45,2.38,.45v.34h-5.72l-.23,.23v2.61l.4,.45,5.61,2.95v4.19l-4.19,2.89-.17,.34v2.72l.23,.23h4.08c6.69-.06,12.07-5.5,12.07-12.18v-4.65l4.02,4.82-4.42,17.85,.23,.23h7.42l.34-.11,11.9-14.34h19.44l11.9,14.34,.34,.11h7.42l.23-.23-6.69-26.8,19.78-12.69,.17-.4Z"/><path class="b" d="M44.16,88.66c-.28-.51-.23-1.08,.4-1.59,.23-.17,2.49-1.76,6.01-2.04,.91-.06,1.47,.34,1.53,1.19,.06,.79-.34,1.25-1.36,1.36-2.61,.17-4.87,1.3-5.21,1.47-.45,.17-1.02,.17-1.36-.4m-5.78,0c.28-.51,.23-1.08-.4-1.59-.23-.17-2.49-1.76-6.01-2.04-.91-.06-1.47,.34-1.53,1.19-.06,.79,.34,1.25,1.36,1.36,2.61,.17,4.87,1.3,5.21,1.47,.45,.17,1.08,.17,1.36-.4m-3.97,13.37c.23,.4,.68,.4,.96,.28s1.93-.91,3.85-1.08c.79-.06,1.02-.4,1.02-1.02-.06-.62-.45-.91-1.13-.85-2.55,.17-4.25,1.36-4.42,1.47-.45,.4-.51,.85-.28,1.19m-3.29,0c.23-.4,.17-.79-.28-1.19-.17-.11-1.87-1.3-4.42-1.47-.68-.06-1.08,.28-1.13,.85s.23,.96,1.02,1.02c1.93,.17,3.57,.96,3.85,1.08,.28,.11,.74,.11,.96-.28"/><path d="M163.78,130.88h-4.87v-22.21h10.14c2.83,0,4.99,.74,6.46,2.27,1.25,1.25,1.93,2.95,1.93,5.1v.06c0,2.27-.74,4.08-2.27,5.5s-4.08,2.15-7.59,2.21h-3.8v7.08Zm0-17.79v6.4h4.93c1.19,0,2.15-.28,2.78-.85s.96-1.3,.96-2.27v-.06c0-1.08-.34-1.87-1.02-2.38-.68-.51-1.64-.79-2.83-.79h-4.82v-.06Zm13.26,17.79h-4.87c-.51-1.59-1.02-2.95-1.47-3.91-.45-1.02-1.02-2.1-1.76-3.17h-5.1v-2.95h7.48v1.02h1.93c.68,1.19,1.36,2.49,1.93,3.91,.62,1.42,1.25,3.12,1.87,5.1"/><path d="M310.09,130.88h-4.87v-22.21h10.14c2.83,0,4.99,.74,6.46,2.27,1.25,1.25,1.93,2.95,1.93,5.1v.06c0,2.27-.74,4.08-2.27,5.5s-4.08,2.15-7.59,2.21h-3.8v7.08h0Zm0-17.79v6.4h4.93c1.19,0,2.15-.28,2.78-.85,.62-.57,.96-1.3,.96-2.27v-.06c0-1.08-.34-1.87-1.02-2.38-.68-.51-1.64-.79-2.83-.79h-4.82v-.06Zm13.26,17.79h-4.87c-.51-1.59-1.02-2.95-1.47-3.91-.45-1.02-1.02-2.1-1.76-3.17h-5.1v-2.95h7.48v1.02h1.93c.68,1.19,1.36,2.49,1.93,3.91,.62,1.42,1.25,3.12,1.87,5.1"/><path d="M156.75,71.72l-8.56,13.37v8.78h-4.87v-8.78l-8.56-13.43h5.72l5.33,8.9,5.38-8.9h5.55v.06Zm17.06,22.16h5.1l-9.52-22.38h-4.53l-9.52,22.38h4.99l2.04-4.99h9.41l2.04,4.99Zm-6.74-16.49l2.95,7.2h-5.89l2.95-7.2Zm38.14-5.72h-5.27l-5.84,9.41-5.84-9.41h-5.27v22.21h4.82v-14.39l5.5,8.39h1.47l5.61-8.5v14.51h4.87v-22.21h-.06Zm22.21,22.21h5.1l-9.52-22.38h-4.48l-9.52,22.38h4.99l2.04-4.99h9.41l1.98,4.99Zm-6.74-16.49l2.95,7.2h-5.89l2.95-7.2Zm30.2-5.67h-18.42v4.48h6.74v17.68h4.87v-17.68h6.74v-4.48h.06Zm25.73,10.99c0-1.59-.28-3.06-.85-4.48-.57-1.36-1.42-2.61-2.44-3.63s-2.27-1.81-3.74-2.44c-1.42-.62-3-.91-4.7-.91s-3.29,.28-4.76,.91-2.72,1.42-3.74,2.49c-1.08,1.08-1.87,2.27-2.44,3.63-.62,1.36-.91,2.89-.91,4.48v.06c0,1.59,.28,3.06,.85,4.48,.57,1.36,1.42,2.61,2.44,3.63s2.27,1.81,3.74,2.44c1.42,.62,3,.91,4.7,.91s3.29-.28,4.76-.91,2.72-1.42,3.74-2.49c1.02-1.08,1.87-2.27,2.44-3.63s.91-2.89,.91-4.48v-.06Zm-18.47,0c0-.96,.17-1.87,.51-2.66,.34-.85,.79-1.59,1.36-2.21s1.3-1.13,2.1-1.47c.79-.34,1.7-.57,2.72-.57,.96,0,1.87,.17,2.72,.57s1.53,.85,2.15,1.53c.62,.62,1.08,1.36,1.42,2.21s.51,1.76,.51,2.72v.06c0,.96-.17,1.87-.51,2.66-.34,.85-.79,1.59-1.36,2.21s-1.3,1.13-2.1,1.47c-.85,.34-1.7,.57-2.72,.57s-1.93-.17-2.72-.57-1.53-.85-2.15-1.53c-.62-.62-1.08-1.36-1.42-2.21s-.51-1.76-.51-2.72v-.06Zm-104.21,25.95h-18.42v4.48h6.74v17.68h4.87v-17.68h6.74v-4.48h.06Zm44.65,22.21h5.1l-9.52-22.38h-4.48l-9.52,22.38h4.99l2.04-4.99h9.41l1.98,4.99Zm-6.74-16.49l2.95,7.2h-5.89l2.95-7.2Zm35.64,16.49v-22.21h-4.82v13.66l-10.43-13.66h-4.48v22.21h4.82v-14.11l10.77,14.11h4.14Zm23.29-6.63c0-.96-.17-1.81-.45-2.49-.28-.68-.74-1.3-1.36-1.81-.62-.51-1.36-.96-2.21-1.3-.85-.4-1.87-.68-3-1.02-.96-.23-1.76-.45-2.38-.68-.62-.17-1.13-.4-1.47-.62s-.62-.45-.74-.74c-.11-.28-.23-.57-.23-.96v-.06c0-.57,.23-1.02,.74-1.36,.45-.4,1.19-.57,2.15-.57s1.93,.17,2.83,.57c.96,.4,1.93,.91,2.95,1.59l2.55-3.68c-1.13-.91-2.38-1.59-3.74-2.1-1.36-.51-2.83-.74-4.48-.74-1.13,0-2.21,.17-3.12,.45-.96,.34-1.76,.79-2.44,1.36-.68,.57-1.25,1.3-1.59,2.1-.4,.79-.57,1.76-.57,2.72v.06c0,1.08,.17,2.04,.51,2.78s.85,1.36,1.47,1.87,1.42,.91,2.32,1.25,1.93,.62,3.06,.91c.91,.23,1.7,.45,2.27,.68,.57,.23,1.02,.4,1.36,.62s.57,.45,.68,.68c.11,.23,.17,.51,.17,.85v.06c0,.68-.28,1.19-.85,1.53-.57,.4-1.36,.57-2.38,.57-1.25,0-2.44-.23-3.51-.74-1.08-.51-2.1-1.13-3.12-1.98l-2.89,3.46c1.36,1.19,2.83,2.1,4.42,2.66,1.64,.57,3.29,.85,4.99,.85,1.19,0,2.32-.17,3.29-.45,1.02-.28,1.87-.74,2.55-1.3,.74-.57,1.3-1.3,1.7-2.15s.62-1.81,.62-2.95v.11h-.11Zm10.37-.06h3.74c1.25,0,2.44-.17,3.51-.51,1.08-.34,2.04-.79,2.83-1.47s1.47-1.47,1.93-2.44c.45-.96,.68-2.1,.68-3.4v-.06c0-1.13-.17-2.21-.57-3.12-.4-.96-.96-1.76-1.7-2.44-.74-.68-1.64-1.19-2.66-1.59-1.02-.34-2.21-.57-3.57-.57h-9.07v22.21h4.87v-6.63h0Zm3.8-11.11c1.25,0,2.21,.28,2.89,.85,.74,.57,1.08,1.42,1.08,2.49v.06c0,.96-.34,1.76-1.02,2.38-.68,.62-1.64,.96-2.83,.96h-3.85v-6.8h3.74v.06Zm35.93,6.63c0-1.59-.28-3.06-.85-4.48-.57-1.36-1.42-2.61-2.44-3.63s-2.27-1.81-3.74-2.44c-1.42-.62-3-.91-4.7-.91s-3.29,.28-4.76,.91c-1.47,.62-2.72,1.42-3.74,2.49-1.02,1.02-1.87,2.27-2.44,3.63s-.91,2.89-.91,4.48v.06c0,1.59,.28,3.06,.85,4.48,.57,1.36,1.42,2.61,2.44,3.63,1.08,1.02,2.27,1.81,3.74,2.44,1.42,.62,3,.91,4.7,.91s3.29-.28,4.76-.91c1.47-.62,2.72-1.42,3.74-2.49s1.87-2.27,2.44-3.63,.91-2.89,.91-4.48v-.06Zm-18.47,0c0-.96,.17-1.87,.51-2.66,.34-.85,.79-1.59,1.36-2.21s1.3-1.13,2.1-1.47,1.7-.57,2.72-.57c.96,0,1.87,.17,2.72,.57,.85,.34,1.53,.85,2.15,1.53,.62,.62,1.08,1.36,1.42,2.21s.51,1.76,.51,2.72v.06c0,.96-.17,1.87-.51,2.66-.34,.85-.79,1.59-1.36,2.21s-1.3,1.13-2.1,1.47c-.85,.34-1.7,.57-2.72,.57s-1.93-.17-2.72-.57c-.79-.4-1.53-.85-2.15-1.53-.62-.62-1.08-1.36-1.42-2.21s-.51-1.76-.51-2.72v-.06Zm62.62-11.05h-18.42v4.48h6.74v17.68h4.87v-17.68h6.74v-4.48h.06Z"/></svg>