<?xml version="1.0" encoding="UTF-8"?><svg id="a" xmlns="http://www.w3.org/2000/svg" viewBox="0 0 350 200"><defs><style>.b{fill:#00abea;}</style></defs><path class="b" d="M97.94,157.7h-9.32l4.07-14.54h1.14l4.11,14.54Zm-2.66-18.84h-5.66l-10.09,33.84h3.25c1.05,0,1.81-.59,2.11-1.63l2.53-9.13h11.72l3.03,10.75h4.74l-9.48-32.14c-.38-1.13-1.1-1.7-2.15-1.7"/><path class="b" d="M118.57,142.15c0,.78,.44,1.23,1.21,1.23h7.91v29.33h3.26c.81,0,1.25-.45,1.25-1.27v-28.06h7.99c.78,0,1.22-.45,1.22-1.23v-3.06h-22.84v3.06Z"/><path class="b" d="M180.12,155.69c0,8.58-3.08,12.93-9.17,12.93s-9.24-4.35-9.24-12.93,3.11-12.93,9.24-12.93,9.17,4.35,9.17,12.93m-9.17-17.27c-8.98,0-13.72,5.97-13.72,17.27s4.75,17.27,13.72,17.27c6.24,0,13.68-3,13.68-17.27s-7.44-17.27-13.68-17.27"/><path class="b" d="M223.48,141.17l-6.69,19.99-.21,.73-.22-.75-7.47-20.68c-.51-1.32-1.41-1.6-2.06-1.6h-4.8v33.85h3.23c.81,0,1.25-.45,1.25-1.28v-26.18l.45,1.46,7.75,21.37,.07,.2h1.99c1.11,0,1.92-.57,2.26-1.61l6.76-19.98,.41-1.37v27.39h3.3c.77,0,1.21-.47,1.21-1.28v-32.57h-4.2c-1.63,0-2.51,.67-3.05,2.31"/><path class="b" d="M270.38,138.86c-1.54,0-2.23,.46-2.95,1.97l-6.68,13.64-7.62-15.44-.09-.17h-5.06l10.5,20.71v13.13h3.46c.43,0,1.14-.17,1.14-1.28v-9.26c0-1.83,.27-2.98,1.07-4.58l9.39-18.72h-3.14Z"/><path class="b" d="M54.12,59.66c13.37,0,18.08,13.71,18.08,25.33s-4.71,25.38-18.08,25.38-18.08-13.73-18.08-25.38,4.71-25.33,18.08-25.33m.27,61.4c14.85,0,18.47-10.74,18.47-10.74v5.84c0,3.32,2.47,4.91,5.15,4.91,2.13,0,5.15-.97,5.15-4.91V53.14c0-4.17-3.02-5.15-5.15-5.15-2.26,0-5.15,.98-5.15,5.15v4.36s-4.61-9.51-18.47-9.51c-18.84,0-29.39,17.6-29.39,36.53s10.55,36.54,29.39,36.54"/><path class="b" d="M92.24,58.18h7.93v57.97c0,2.86,2.15,4.91,5.53,4.91s5.52-2.02,5.52-4.91V58.18h7.97c3.63,0,5.52-1.87,5.52-5.11s-1.89-5.09-5.52-5.09h-7.97v-15.39c0-2.49-.5-5.57-5.52-5.57-4.69,0-5.53,3.15-5.53,5.57v15.39h-7.93c-3.66,0-5.52,1.85-5.52,5.09s1.86,5.11,5.52,5.11"/><path class="b" d="M149.44,58.92c13.55,0,18.31,13.96,18.31,25.81s-4.77,25.85-18.31,25.85-18.34-13.95-18.34-25.85,4.78-25.81,18.34-25.81m0,62.14c18.83,0,29.39-17.58,29.39-36.54s-10.56-36.53-29.39-36.53-29.41,17.59-29.41,36.53,10.57,36.54,29.41,36.54"/><path class="b" d="M319.06,110.58c-14.19,0-18.08-7.06-18.72-8.07h17.57s4.95,.41,4.95-5.28-4.95-5.3-4.95-5.3h-21.51v-3.71h21.65s5.27,.38,5.27-4.95-5.27-5.01-5.27-5.01h-21.65v-3.26h18.97s4.92,.35,4.92-4.62-4.92-4.6-4.92-4.6h-18.97v-3.44h23.68s4.92,.41,4.92-5.28-4.92-5.31-4.92-5.31h-12.3s5.27-5.31,1.6-8.61c-3.58-3.22-6.72,.58-6.72,.58l-7.25,8.02h-8.09l-7.26-8.02s-3.13-3.8-6.7-.58c-3.66,3.3,1.61,8.61,1.61,8.61h-12.3s-4.93-.22-4.93,5.31,4.93,5.28,4.93,5.28h23.67v3.44h-18.97s-4.93-.23-4.93,4.6,4.93,4.62,4.93,4.62h18.97v3.26h-21.65s-5.26-.23-5.26,5.01,5.26,4.95,5.26,4.95h21.65v3.71h-21.51s-4.94-.23-4.94,5.3,4.94,5.28,4.94,5.28h17.55c-.62,1.01-4.51,8.07-18.71,8.07-5.93,0-6.26,4.05-5.79,6.61,.41,2.19,2.74,3.83,5.03,3.77,0,0,18.68,1.31,28.46-12.57,9.8,13.88,28.45,12.57,28.45,12.57,2.32,.06,4.61-1.58,5.02-3.77,.47-2.56,.15-6.61-5.79-6.61"/><path class="b" d="M252.42,64.31c0-9.88-9.48-16.06-18.18-16.06-7.32,0-13.64,3.06-16.34,7.44-2.13-4.38-7.09-7.44-12.87-7.44-4.74,0-8.94,2.06-11.47,5.21-.03-3.98-1.52-5.47-4.51-5.47-3.48,0-4.93,1.6-4.93,5.76v62.4s-.01,4.91,5.28,4.91h.03c5.48,0,5.27-4.91,5.27-4.91v-47.12c0-1.72,.61-7.91,9.19-7.91,8.11,0,9.1,4.99,9.1,7.91v47.12s-.14,4.91,5.3,4.91,5.26-4.91,5.26-4.91v-47.12c0-3.71,2.17-7.91,9.13-7.91,8.4,0,9.17,4.99,9.17,7.91v47.12s-.24,4.91,5.3,4.91,5.28-4.91,5.28-4.91v-51.84Z"/></svg>