<?xml version="1.0" encoding="UTF-8"?><svg id="a" xmlns="http://www.w3.org/2000/svg" viewBox="0 0 400 95"><defs><style>.b{fill:#ff5600;}</style></defs><g><polygon class="b" points="51.25 .18 19.04 .18 46.01 36.75 .33 36.75 .33 57.96 46.01 57.96 19.04 94.53 51.25 94.53 86.04 47.36 51.25 .18"/><polygon class="b" points="79.24 81.77 88.65 94.53 102.04 94.53 120.83 94.53 95.33 59.95 79.24 81.77"/><polygon class="b" points="120.83 .18 102.04 .18 88.72 .18 79.27 12.98 95.33 34.76 120.83 .18"/></g><g><path class="b" d="M151.88,46.99l-13.85-20.99h16.23l6.16,10.19,6.22-10.19h15.92l-13.85,20.87,14.46,21.84h-16.23l-6.77-11.1-6.83,11.1h-15.92l14.46-21.72Z"/><path class="b" d="M185,26h20.87c7.57,0,12.39,1.89,15.38,4.88,2.56,2.56,3.9,5.74,3.9,10.13v.12c0,6.22-3.23,10.56-8.42,13.06l9.95,14.52h-16.29l-8.05-12.2h-3.05v12.2h-14.28V26Zm20.44,20.32c3.42,0,5.49-1.52,5.49-4.15v-.12c0-2.75-2.14-4.09-5.43-4.09h-6.22v8.36h6.16Z"/><path class="b" d="M227.06,47.48v-.12c0-12.39,10.19-22.27,23.37-22.27s23.25,9.76,23.25,22.15v.12c0,12.39-10.19,22.27-23.37,22.27s-23.25-9.76-23.25-22.15Zm32.22,0v-.12c0-5.06-3.48-9.64-8.97-9.64s-8.85,4.52-8.85,9.52v.12c0,5.06,3.48,9.64,8.97,9.64s8.85-4.51,8.85-9.52Z"/><path class="b" d="M277.28,49.55V26h14.52v23.37c0,5.31,2.75,7.57,6.59,7.57s6.59-2.07,6.59-7.26V26h14.52v23.25c0,14.58-8.48,20.32-21.23,20.32s-20.99-5.86-20.99-20.01Z"/><path class="b" d="M334.34,38.08h-12.57v-12.08h39.41v12.08h-12.57v30.63h-14.28v-30.63Z"/><path class="b" d="M363.6,26h36.43v11.71h-22.39v4.33h20.87v10.31h-20.87v4.64h22.7v11.71h-36.73V26Z"/></g></svg>